<?xml version="1.0" encoding="utf-8"?>
<!-- Generator: Adobe Illustrator 23.0.4, SVG Export Plug-In . SVG Version: 6.00 Build 0)  -->
<svg version="1.1" id="Layer_1" xmlns="http://www.w3.org/2000/svg" xmlns:xlink="http://www.w3.org/1999/xlink" x="0px" y="0px"
	 viewBox="0 0 124 13" style="enable-background:new 0 0 124 13;" xml:space="preserve">
<style type="text/css">
	.st0{enable-background:new    ;}
	.st1{fill:#FFFFFF;}
</style>
<title>Digital Experience Copy 8</title>
<desc>Created with Sketch.</desc>
<g id="Page-1">
	<g id="Apple-TV-Copy" transform="translate(-1420.000000, -2026.000000)">
		<g class="st0">
			<path class="st1" d="M1425.28,2027c0.64,0,1.24,0.1,1.8,0.31c0.56,0.21,1.04,0.51,1.44,0.92c0.41,0.41,0.72,0.92,0.95,1.54
				c0.23,0.62,0.34,1.34,0.34,2.17c0,0.73-0.09,1.4-0.28,2.02c-0.19,0.62-0.47,1.15-0.85,1.6c-0.38,0.45-0.85,0.8-1.41,1.06
				c-0.56,0.26-1.23,0.38-2,0.38h-4.31v-10H1425.28z M1425.12,2035.15c0.32,0,0.62-0.05,0.92-0.15s0.56-0.27,0.8-0.51
				c0.23-0.24,0.42-0.55,0.56-0.93c0.14-0.38,0.21-0.85,0.21-1.4c0-0.5-0.05-0.96-0.15-1.37c-0.1-0.41-0.26-0.75-0.48-1.04
				c-0.22-0.29-0.52-0.51-0.89-0.67c-0.37-0.15-0.82-0.23-1.37-0.23h-1.57v6.3H1425.12z"/>
			<path class="st1" d="M1431.33,2028.64V2027h1.99v1.64H1431.33z M1433.31,2029.76v7.24h-1.99v-7.24H1433.31z"/>
			<path class="st1" d="M1441.86,2037.53c-0.08,0.37-0.25,0.72-0.51,1.04s-0.64,0.59-1.13,0.82c-0.5,0.22-1.16,0.34-1.99,0.34
				c-0.35,0-0.72-0.04-1.08-0.13s-0.7-0.23-1.01-0.41c-0.3-0.19-0.56-0.43-0.76-0.72s-0.31-0.65-0.34-1.06h1.97
				c0.09,0.37,0.27,0.63,0.55,0.78c0.27,0.14,0.58,0.22,0.94,0.22c0.56,0,0.97-0.17,1.23-0.5c0.26-0.34,0.38-0.76,0.37-1.27v-0.95
				h-0.03c-0.21,0.38-0.52,0.67-0.92,0.85c-0.4,0.18-0.81,0.27-1.25,0.27c-0.54,0-1.01-0.1-1.4-0.29s-0.71-0.45-0.97-0.78
				c-0.25-0.33-0.44-0.72-0.55-1.16c-0.12-0.44-0.17-0.91-0.17-1.41c0-0.47,0.07-0.92,0.2-1.35c0.14-0.43,0.33-0.82,0.6-1.15
				c0.26-0.33,0.59-0.6,0.97-0.79c0.39-0.2,0.83-0.29,1.34-0.29c0.48,0,0.89,0.09,1.25,0.27c0.36,0.18,0.66,0.48,0.9,0.9h0.03v-0.97
				h1.89v6.78C1441.98,2036.83,1441.94,2037.16,1441.86,2037.53z M1439.14,2035.12c0.21-0.11,0.39-0.26,0.53-0.45
				c0.14-0.19,0.25-0.4,0.32-0.64c0.07-0.24,0.1-0.49,0.1-0.75c0-0.3-0.03-0.58-0.08-0.85c-0.06-0.27-0.15-0.5-0.28-0.71
				s-0.3-0.37-0.52-0.49s-0.49-0.18-0.81-0.18c-0.28,0-0.52,0.06-0.72,0.17c-0.2,0.11-0.37,0.26-0.5,0.45
				c-0.14,0.19-0.23,0.41-0.29,0.66c-0.06,0.25-0.09,0.51-0.09,0.78c0,0.26,0.03,0.52,0.08,0.78c0.05,0.26,0.14,0.49,0.27,0.69
				c0.13,0.21,0.29,0.37,0.5,0.5c0.21,0.13,0.46,0.2,0.77,0.2C1438.68,2035.29,1438.92,2035.24,1439.14,2035.12z"/>
			<path class="st1" d="M1443.77,2028.64V2027h1.99v1.64H1443.77z M1445.76,2029.76v7.24h-1.99v-7.24H1445.76z"/>
			<path class="st1" d="M1451.44,2029.76v1.33h-1.46v3.58c0,0.34,0.06,0.56,0.17,0.67c0.11,0.11,0.34,0.17,0.67,0.17
				c0.11,0,0.22,0,0.32-0.01c0.1-0.01,0.2-0.02,0.29-0.04v1.54c-0.17,0.03-0.35,0.05-0.56,0.06c-0.21,0.01-0.41,0.01-0.6,0.01
				c-0.31,0-0.6-0.02-0.88-0.06s-0.52-0.12-0.73-0.25c-0.21-0.12-0.38-0.29-0.5-0.52c-0.12-0.22-0.18-0.52-0.18-0.88v-4.27h-1.2
				v-1.33h1.2v-2.17h1.99v2.17H1451.44z"/>
			<path class="st1" d="M1452.45,2031.99c0.03-0.47,0.14-0.85,0.35-1.16c0.21-0.31,0.47-0.56,0.78-0.74
				c0.32-0.19,0.67-0.32,1.07-0.4c0.4-0.08,0.8-0.12,1.2-0.12c0.36,0,0.73,0.03,1.11,0.08c0.37,0.05,0.71,0.15,1.02,0.3
				c0.31,0.15,0.56,0.36,0.76,0.62c0.2,0.27,0.29,0.62,0.29,1.06v3.77c0,0.33,0.02,0.64,0.06,0.94c0.04,0.3,0.1,0.52,0.2,0.67h-2.02
				c-0.04-0.11-0.07-0.23-0.09-0.34c-0.02-0.12-0.04-0.24-0.05-0.36c-0.32,0.33-0.69,0.56-1.12,0.69c-0.43,0.13-0.87,0.2-1.32,0.2
				c-0.35,0-0.67-0.04-0.97-0.13s-0.56-0.21-0.78-0.39s-0.4-0.4-0.52-0.67s-0.19-0.59-0.19-0.97c0-0.41,0.07-0.75,0.22-1.02
				c0.14-0.27,0.33-0.48,0.56-0.64c0.23-0.16,0.49-0.28,0.78-0.36c0.29-0.08,0.59-0.14,0.89-0.19s0.59-0.08,0.88-0.11
				c0.29-0.03,0.55-0.07,0.77-0.13c0.22-0.06,0.4-0.14,0.53-0.25c0.13-0.11,0.19-0.26,0.18-0.47c0-0.21-0.04-0.38-0.1-0.51
				c-0.07-0.13-0.16-0.22-0.28-0.29c-0.12-0.07-0.25-0.12-0.41-0.14c-0.15-0.02-0.32-0.03-0.5-0.03c-0.39,0-0.7,0.08-0.92,0.25
				c-0.22,0.17-0.35,0.45-0.39,0.84H1452.45z M1457.04,2033.46c-0.08,0.08-0.19,0.13-0.31,0.17s-0.26,0.08-0.41,0.11
				c-0.15,0.03-0.3,0.05-0.46,0.07c-0.16,0.02-0.32,0.04-0.48,0.07c-0.15,0.03-0.3,0.07-0.44,0.11s-0.27,0.11-0.38,0.19
				c-0.11,0.08-0.19,0.18-0.26,0.3c-0.07,0.12-0.1,0.28-0.1,0.46c0,0.18,0.03,0.33,0.1,0.45c0.06,0.12,0.15,0.22,0.27,0.29
				c0.11,0.07,0.24,0.12,0.39,0.15c0.15,0.03,0.3,0.04,0.46,0.04c0.39,0,0.7-0.07,0.91-0.2s0.37-0.29,0.48-0.47
				c0.1-0.18,0.17-0.37,0.19-0.55c0.02-0.19,0.04-0.34,0.04-0.45V2033.46z"/>
			<path class="st1" d="M1462.76,2027v10h-1.99v-10H1462.76z"/>
			<path class="st1" d="M1476.18,2027v1.85h-5.28v2.14h4.84v1.71h-4.84v2.45h5.39v1.85h-7.59v-10H1476.18z"/>
			<path class="st1" d="M1477.18,2029.76h2.27l1.27,1.89l1.26-1.89h2.2l-2.38,3.39l2.67,3.85h-2.27l-1.51-2.28l-1.51,2.28h-2.23
				l2.6-3.81L1477.18,2029.76z"/>
			<path class="st1" d="M1487.26,2029.76v0.92h0.03c0.24-0.39,0.55-0.68,0.92-0.85c0.37-0.18,0.78-0.27,1.23-0.27
				c0.57,0,1.06,0.11,1.47,0.32c0.41,0.21,0.75,0.5,1.02,0.85c0.27,0.35,0.47,0.77,0.6,1.24c0.13,0.47,0.2,0.96,0.2,1.48
				c0,0.49-0.07,0.95-0.2,1.4c-0.13,0.45-0.33,0.84-0.59,1.19c-0.27,0.35-0.6,0.62-0.99,0.83c-0.4,0.21-0.86,0.31-1.39,0.31
				c-0.45,0-0.86-0.09-1.24-0.27c-0.38-0.18-0.69-0.45-0.93-0.81h-0.03v3.43h-1.99v-9.77H1487.26z M1489.84,2035.5
				c0.22-0.13,0.4-0.3,0.53-0.51c0.13-0.21,0.23-0.46,0.29-0.74s0.08-0.56,0.08-0.85s-0.03-0.57-0.09-0.85s-0.16-0.53-0.3-0.75
				c-0.14-0.22-0.32-0.4-0.54-0.53c-0.22-0.13-0.49-0.2-0.8-0.2c-0.33,0-0.6,0.07-0.82,0.2c-0.22,0.14-0.4,0.31-0.53,0.53
				s-0.23,0.46-0.29,0.74c-0.06,0.28-0.08,0.57-0.08,0.87c0,0.29,0.03,0.57,0.09,0.85c0.06,0.28,0.16,0.53,0.29,0.74
				c0.14,0.21,0.32,0.38,0.54,0.51c0.22,0.13,0.5,0.2,0.81,0.2C1489.35,2035.7,1489.62,2035.63,1489.84,2035.5z"/>
			<path class="st1" d="M1496.19,2035.26c0.3,0.29,0.73,0.43,1.29,0.43c0.4,0,0.75-0.1,1.04-0.3c0.29-0.2,0.47-0.41,0.53-0.64h1.75
				c-0.28,0.87-0.71,1.49-1.29,1.86c-0.58,0.37-1.28,0.56-2.1,0.56c-0.57,0-1.08-0.09-1.54-0.27c-0.46-0.18-0.84-0.44-1.16-0.78
				s-0.56-0.74-0.73-1.2c-0.17-0.47-0.26-0.98-0.26-1.54c0-0.54,0.09-1.04,0.27-1.51c0.18-0.47,0.43-0.87,0.76-1.21
				c0.33-0.34,0.72-0.61,1.17-0.8c0.45-0.2,0.95-0.29,1.5-0.29c0.62,0,1.15,0.12,1.61,0.36c0.46,0.24,0.83,0.56,1.13,0.96
				c0.29,0.4,0.51,0.86,0.64,1.37c0.13,0.51,0.18,1.05,0.14,1.61h-5.22C1495.72,2034.51,1495.89,2034.97,1496.19,2035.26z
				 M1498.43,2031.46c-0.24-0.26-0.6-0.39-1.08-0.39c-0.32,0-0.58,0.05-0.79,0.16c-0.21,0.11-0.38,0.24-0.5,0.4
				c-0.13,0.16-0.21,0.33-0.27,0.5c-0.05,0.18-0.08,0.34-0.09,0.48h3.23C1498.84,2032.1,1498.67,2031.72,1498.43,2031.46z"/>
			<path class="st1" d="M1504.12,2029.76v1.34h0.03c0.09-0.22,0.22-0.43,0.38-0.62c0.16-0.19,0.34-0.36,0.55-0.49
				c0.21-0.14,0.42-0.24,0.66-0.32c0.23-0.07,0.48-0.11,0.73-0.11c0.13,0,0.28,0.02,0.43,0.07v1.85c-0.09-0.02-0.21-0.04-0.34-0.05
				c-0.13-0.01-0.26-0.02-0.38-0.02c-0.37,0-0.67,0.06-0.92,0.18c-0.25,0.12-0.45,0.29-0.61,0.5s-0.26,0.46-0.33,0.74
				c-0.06,0.28-0.1,0.58-0.1,0.91v3.26h-1.99v-7.24H1504.12z"/>
			<path class="st1" d="M1507.88,2028.64V2027h1.99v1.64H1507.88z M1509.87,2029.76v7.24h-1.99v-7.24H1509.87z"/>
			<path class="st1" d="M1513.7,2035.26c0.3,0.29,0.73,0.43,1.29,0.43c0.4,0,0.75-0.1,1.04-0.3c0.29-0.2,0.47-0.41,0.53-0.64h1.75
				c-0.28,0.87-0.71,1.49-1.29,1.86c-0.58,0.37-1.28,0.56-2.1,0.56c-0.57,0-1.08-0.09-1.54-0.27c-0.46-0.18-0.84-0.44-1.16-0.78
				s-0.56-0.74-0.73-1.2c-0.17-0.47-0.26-0.98-0.26-1.54c0-0.54,0.09-1.04,0.27-1.51c0.18-0.47,0.43-0.87,0.76-1.21
				c0.33-0.34,0.72-0.61,1.17-0.8c0.45-0.2,0.95-0.29,1.5-0.29c0.62,0,1.15,0.12,1.61,0.36c0.46,0.24,0.83,0.56,1.13,0.96
				c0.29,0.4,0.51,0.86,0.64,1.37c0.13,0.51,0.18,1.05,0.14,1.61h-5.22C1513.24,2034.51,1513.4,2034.97,1513.7,2035.26z
				 M1515.95,2031.46c-0.24-0.26-0.6-0.39-1.08-0.39c-0.32,0-0.58,0.05-0.79,0.16c-0.21,0.11-0.38,0.24-0.5,0.4
				c-0.13,0.16-0.21,0.33-0.27,0.5c-0.05,0.18-0.08,0.34-0.09,0.48h3.23C1516.35,2032.1,1516.19,2031.72,1515.95,2031.46z"/>
			<path class="st1" d="M1521.64,2029.76v1.01h0.04c0.25-0.42,0.58-0.73,0.98-0.92c0.4-0.19,0.81-0.29,1.23-0.29
				c0.53,0,0.97,0.07,1.31,0.22c0.34,0.14,0.61,0.34,0.81,0.6s0.33,0.57,0.41,0.94c0.08,0.37,0.12,0.78,0.12,1.22v4.45h-1.99v-4.09
				c0-0.6-0.09-1.04-0.28-1.34s-0.52-0.44-0.99-0.44c-0.54,0-0.93,0.16-1.18,0.48s-0.36,0.85-0.36,1.59v3.79h-1.99v-7.24H1521.64z"
				/>
			<path class="st1" d="M1531.65,2031.06c-0.32,0-0.58,0.07-0.8,0.22c-0.21,0.14-0.39,0.33-0.52,0.56
				c-0.14,0.23-0.23,0.48-0.29,0.76c-0.06,0.28-0.08,0.55-0.08,0.82c0,0.26,0.03,0.53,0.08,0.8c0.06,0.27,0.15,0.52,0.27,0.74
				c0.13,0.22,0.3,0.4,0.51,0.54c0.21,0.14,0.48,0.21,0.78,0.21c0.48,0,0.84-0.13,1.1-0.4c0.26-0.27,0.42-0.62,0.48-1.07h1.92
				c-0.13,0.96-0.5,1.69-1.12,2.2c-0.62,0.5-1.4,0.76-2.37,0.76c-0.54,0-1.04-0.09-1.49-0.27c-0.45-0.18-0.84-0.44-1.15-0.76
				c-0.32-0.33-0.56-0.72-0.74-1.17c-0.18-0.45-0.27-0.95-0.27-1.49c0-0.56,0.08-1.08,0.24-1.56c0.16-0.48,0.4-0.9,0.72-1.25
				c0.32-0.35,0.7-0.62,1.16-0.82c0.46-0.2,0.98-0.29,1.57-0.29c0.43,0,0.84,0.06,1.24,0.17c0.4,0.11,0.75,0.28,1.06,0.51
				c0.31,0.23,0.57,0.51,0.76,0.85c0.2,0.34,0.31,0.75,0.34,1.21h-1.95C1532.99,2031.48,1532.5,2031.06,1531.65,2031.06z"/>
			<path class="st1" d="M1538.49,2035.26c0.3,0.29,0.73,0.43,1.29,0.43c0.4,0,0.75-0.1,1.04-0.3c0.29-0.2,0.47-0.41,0.53-0.64h1.75
				c-0.28,0.87-0.71,1.49-1.29,1.86c-0.58,0.37-1.28,0.56-2.1,0.56c-0.57,0-1.08-0.09-1.54-0.27c-0.46-0.18-0.84-0.44-1.16-0.78
				c-0.32-0.34-0.56-0.74-0.73-1.2c-0.17-0.47-0.26-0.98-0.26-1.54c0-0.54,0.09-1.04,0.27-1.51s0.43-0.87,0.76-1.21
				c0.33-0.34,0.71-0.61,1.17-0.8c0.45-0.2,0.96-0.29,1.51-0.29c0.62,0,1.15,0.12,1.61,0.36s0.83,0.56,1.13,0.96
				s0.51,0.86,0.64,1.37c0.13,0.51,0.18,1.05,0.14,1.61H1538C1538.03,2034.51,1538.2,2034.97,1538.49,2035.26z M1540.74,2031.46
				c-0.24-0.26-0.6-0.39-1.08-0.39c-0.32,0-0.58,0.05-0.79,0.16c-0.21,0.11-0.38,0.24-0.5,0.4c-0.13,0.16-0.21,0.33-0.27,0.5
				c-0.05,0.18-0.08,0.34-0.09,0.48h3.23C1541.14,2032.1,1540.98,2031.72,1540.74,2031.46z"/>
		</g>
	</g>
</g>
</svg>
