<?xml version="1.0" encoding="utf-8"?>
<svg width="23px" height="15px" viewBox="0 0 23 15" version="1.1" xmlns:xlink="http://www.w3.org/1999/xlink" xmlns="http://www.w3.org/2000/svg">
  <g id="united-states">
    <path d="M21.2775 0L1.72253 0C0.771174 0 0 0.76764 0 1.71464L0 13.2853C0 14.2323 0.771174 15 1.72253 15L21.2775 15C22.2288 15 23 14.2323 23 13.2853L23 1.71464C23 0.76764 22.2288 0 21.2775 0Z" transform="translate(0 4.4716053E-05)" id="Path" fill="#F5F5F5" stroke="none" />
    <g id="Group" transform="translate(0 4.4716053E-05)">
      <path d="M0 1.15385L22.8105 1.15385C22.5771 0.482352 21.9367 0 21.1827 0L1.62779 0C0.87382 0 0.233459 0.482352 0 1.15385Z" transform="translate(0.094740234 0)" id="Path" fill="#FF4B55" stroke="none" />
      <path d="M0 0L23 0L23 1.15381L0 1.15381L0 0Z" transform="translate(0 4.6153226)" id="Rectangle" fill="#FF4B55" stroke="none" />
      <path d="M0 0L23 0L23 1.15381L0 1.15381L0 0Z" transform="translate(0 2.3075273)" id="Rectangle" fill="#FF4B55" stroke="none" />
      <path d="M0 0.7591C0 0.97709 0.177576 1.15385 0.39657 1.15385L23 1.15385L23 0L0 0L0 0.7591Z" transform="translate(0 6.923029)" id="Path" fill="#FF4B55" stroke="none" />
      <path d="M0 0L23 0L23 1.15385L0 1.15385L0 0Z" transform="translate(0 11.53871)" id="Rectangle" fill="#FF4B55" stroke="none" />
      <path d="M22.8105 0L0 0C0.233459 0.671501 0.873865 1.15385 1.62779 1.15385L21.1827 1.15385C21.9367 1.15385 22.5771 0.671501 22.8105 0Z" transform="translate(0.094740234 13.846058)" id="Path" fill="#FF4B55" stroke="none" />
      <path d="M0 0L23 0L23 1.15381L0 1.15381L0 0Z" transform="translate(0 9.230914)" id="Rectangle" fill="#FF4B55" stroke="none" />
    </g>
    <path d="M0.39657 8.07693L10.3104 8.07693C10.5294 8.07693 10.7069 7.90016 10.7069 7.68217L10.7069 0.394753C10.7069 0.176718 10.5294 0 10.3104 0L1.72253 0C0.771174 4.4716e-05 0 0.767685 0 1.71468L0 7.68217C0 7.90021 0.177576 8.07693 0.39657 8.07693Z" id="Path" fill="#41479B" stroke="none" />
    <g id="Group" transform="translate(0.6402554 0.88058203)">
      <path d="M0.473313 0.025449L0.56109 0.287485L0.838573 0.289587C0.87451 0.2899 0.889379 0.33551 0.860495 0.35675L0.637278 0.520813L0.721012 0.784146C0.731883 0.81822 0.692846 0.84648 0.663602 0.825643L0.43787 0.665067L0.212137 0.825688C0.182893 0.846525 0.143946 0.818265 0.154727 0.784191L0.238461 0.520858L0.0152446 0.356795C-0.0136401 0.33551 0.00122901 0.2899 0.0371665 0.289631L0.314649 0.28753L0.402426 0.0254937C0.413747 -0.00849046 0.461903 -0.00849046 0.473313 0.025449Z" transform="translate(0 5.5867467E-06)" id="Path" fill="#F5F5F5" stroke="none" />
      <path d="M0.473313 0.0254155L0.56109 0.287452L0.838573 0.289553C0.87451 0.289866 0.889379 0.335432 0.860495 0.356717L0.637278 0.520825L0.721012 0.784157C0.731883 0.818231 0.692846 0.846492 0.663602 0.825654L0.43787 0.665079L0.212137 0.825699C0.182893 0.846492 0.143946 0.818276 0.154727 0.784202L0.238461 0.520869L0.0152446 0.356761C-0.0136401 0.335477 0.00122901 0.289911 0.0371665 0.289598L0.314649 0.287496L0.402426 0.0254602C0.413747 -0.00847928 0.461903 -0.00847928 0.473313 0.0254155Z" transform="translate(0 1.370765)" id="Path" fill="#F5F5F5" stroke="none" />
      <path d="M0.473313 0.025449L0.56109 0.287485L0.838573 0.289587C0.87451 0.2899 0.889379 0.335465 0.860495 0.35675L0.637278 0.520858L0.721012 0.784191C0.731883 0.818265 0.692846 0.846525 0.663602 0.825687L0.43787 0.665112L0.212137 0.825732C0.182893 0.846525 0.143946 0.818354 0.154727 0.784236L0.238461 0.520903L0.0152446 0.356795C-0.0136401 0.33551 0.00122901 0.289944 0.0371665 0.289631L0.314649 0.28753L0.402426 0.0254937C0.413747 -0.00849046 0.461903 -0.00849046 0.473313 0.025449Z" transform="translate(0 2.741502)" id="Path" fill="#F5F5F5" stroke="none" />
      <path d="M0.473313 0.025449L0.56109 0.287485L0.838573 0.289587C0.87451 0.2899 0.889379 0.33551 0.860495 0.35675L0.637278 0.520858L0.721012 0.784191C0.731883 0.818265 0.692846 0.846525 0.663602 0.825688L0.43787 0.665112L0.212137 0.825732C0.182893 0.846525 0.143946 0.818309 0.154727 0.784236L0.238461 0.520903L0.0152446 0.356795C-0.0136401 0.3356 0.00122901 0.289944 0.0371665 0.289631L0.314649 0.28753L0.402426 0.0254937C0.413747 -0.00849046 0.461903 -0.00849046 0.473313 0.025449Z" transform="translate(0 4.112228)" id="Path" fill="#F5F5F5" stroke="none" />
      <path d="M0.473313 0.0254155L0.56109 0.287452L0.838573 0.289553C0.87451 0.289866 0.889379 0.335432 0.860495 0.356717L0.637278 0.520825L0.721012 0.784157C0.731883 0.818231 0.692846 0.846492 0.663602 0.825654L0.43787 0.665079L0.212137 0.825699C0.182893 0.846492 0.143946 0.818276 0.154727 0.784202L0.238461 0.520869L0.0152446 0.356761C-0.0136401 0.335477 0.00122901 0.289911 0.0371665 0.289598L0.314649 0.287496L0.402426 0.0254602C0.413747 -0.00847928 0.461903 -0.00847928 0.473313 0.0254155Z" transform="translate(0 5.4829874)" id="Path" fill="#F5F5F5" stroke="none" />
      <path d="M0.473313 0.0254211L0.56109 0.287457L0.838573 0.289559C0.87451 0.289872 0.889379 0.335482 0.860495 0.356722L0.637278 0.52083L0.721012 0.784163C0.731883 0.818237 0.692846 0.846497 0.663602 0.82566L0.43787 0.665039L0.212137 0.82566C0.182893 0.846452 0.143946 0.818237 0.154727 0.784163L0.238461 0.52083L0.0152446 0.356722C-0.0136401 0.335437 0.00122901 0.289872 0.0371665 0.289559L0.314649 0.287457L0.402426 0.0254211C0.413747 -0.00847369 0.461948 -0.00847369 0.473313 0.0254211Z" transform="translate(1.0688262 0.6720711)" id="Path" fill="#F5F5F5" stroke="none" />
      <path d="M0.473313 0.0254546L0.56109 0.287491L0.838573 0.289592C0.87451 0.289905 0.889379 0.335516 0.860495 0.356756L0.637278 0.520864L0.721012 0.784197C0.731883 0.81827 0.692846 0.846531 0.663602 0.825693L0.43787 0.665073L0.212137 0.825693C0.182893 0.846486 0.143946 0.818315 0.154727 0.784197L0.238461 0.520864L0.0152446 0.356756C-0.0136401 0.33556 0.00122901 0.289905 0.0371665 0.289592L0.314649 0.287491L0.402426 0.0254546C0.413747 -0.00848487 0.461948 -0.00848487 0.473313 0.0254546Z" transform="translate(1.0688262 2.042808)" id="Path" fill="#F5F5F5" stroke="none" />
      <path d="M0.473313 0.0254546L0.56109 0.287491L0.838573 0.289592C0.87451 0.289905 0.889379 0.335471 0.860495 0.356756L0.637278 0.520864L0.721012 0.784197C0.731883 0.81827 0.692846 0.846531 0.663602 0.825693L0.43787 0.665073L0.212137 0.825693C0.182893 0.846486 0.143946 0.81827 0.154727 0.784197L0.238461 0.520864L0.0152446 0.356756C-0.0136401 0.335471 0.00122901 0.289905 0.0371665 0.289592L0.314649 0.287491L0.402426 0.0254546C0.413747 -0.00848487 0.461948 -0.00848487 0.473313 0.0254546Z" transform="translate(1.0688262 3.4135342)" id="Path" fill="#F5F5F5" stroke="none" />
      <path d="M0.473313 0.0254211L0.56109 0.287457L0.838573 0.289559C0.87451 0.289872 0.889379 0.335437 0.860495 0.356722L0.637278 0.52083L0.721012 0.784163C0.731883 0.818237 0.692846 0.846497 0.663602 0.82566L0.43787 0.665039L0.212137 0.82566C0.182893 0.846497 0.143946 0.818237 0.154727 0.784163L0.238461 0.52083L0.0152446 0.356722C-0.0136401 0.335437 0.00122901 0.289872 0.0371665 0.289559L0.314649 0.287457L0.402426 0.0254211C0.413747 -0.00847369 0.461948 -0.00847369 0.473313 0.0254211Z" transform="translate(1.0688262 4.7842937)" id="Path" fill="#F5F5F5" stroke="none" />
      <path d="M0.473313 0.0254546L0.56109 0.287491L0.838573 0.289592C0.87451 0.289905 0.889379 0.335516 0.860495 0.356756L0.637278 0.520819L0.721012 0.784152C0.731883 0.818226 0.692846 0.846486 0.663602 0.825648L0.43787 0.665028L0.212137 0.825648C0.182893 0.846486 0.143946 0.818226 0.154727 0.784152L0.238461 0.520819L0.0152446 0.356756C-0.0136401 0.335471 0.00122901 0.289861 0.0371665 0.289592L0.314649 0.287491L0.402426 0.0254546C0.413747 -0.00848487 0.461948 -0.00848487 0.473313 0.0254546Z" transform="translate(2.1376524 0)" id="Path" fill="#F5F5F5" stroke="none" />
      <path d="M0.473313 0.0254211L0.56109 0.287457L0.838573 0.289559C0.87451 0.289872 0.889379 0.335437 0.860495 0.356722L0.637278 0.52083L0.721012 0.784163C0.731883 0.818237 0.692846 0.846497 0.663602 0.82566L0.43787 0.665039L0.212137 0.82566C0.182893 0.846452 0.143946 0.818237 0.154727 0.784163L0.238461 0.52083L0.0152446 0.356722C-0.0136401 0.335437 0.00122901 0.289872 0.0371665 0.289559L0.314649 0.287457L0.402426 0.0254211C0.413747 -0.00847369 0.461948 -0.00847369 0.473313 0.0254211Z" transform="translate(2.1376524 1.3707595)" id="Path" fill="#F5F5F5" stroke="none" />
      <path d="M0.473313 0.0254546L0.56109 0.287491L0.838573 0.289592C0.87451 0.289905 0.889379 0.335471 0.860495 0.356756L0.637278 0.520864L0.721012 0.784197C0.731883 0.81827 0.692846 0.846531 0.663602 0.825693L0.43787 0.665073L0.212137 0.825693C0.182893 0.846486 0.143946 0.818315 0.154727 0.784197L0.238461 0.520864L0.0152446 0.356756C-0.0136401 0.335471 0.00122901 0.289905 0.0371665 0.289592L0.314649 0.287491L0.402426 0.0254546C0.413747 -0.00848487 0.461948 -0.00848487 0.473313 0.0254546Z" transform="translate(2.1376524 2.7414966)" id="Path" fill="#F5F5F5" stroke="none" />
      <path d="M0.473313 0.0254546L0.56109 0.287491L0.838573 0.289592C0.87451 0.289905 0.889379 0.335516 0.860495 0.356756L0.637278 0.520864L0.721012 0.784197C0.731883 0.81827 0.692846 0.846531 0.663602 0.825693L0.43787 0.665073L0.212137 0.825693C0.182893 0.846486 0.143946 0.81827 0.154727 0.784197L0.238461 0.520864L0.0152446 0.356756C-0.0136401 0.33556 0.00122901 0.289905 0.0371665 0.289592L0.314649 0.287491L0.402426 0.0254546C0.413747 -0.00848487 0.461948 -0.00848487 0.473313 0.0254546Z" transform="translate(2.1376524 4.112222)" id="Path" fill="#F5F5F5" stroke="none" />
      <path d="M0.473313 0.0254211L0.56109 0.287457L0.838573 0.289559C0.87451 0.289872 0.889379 0.335437 0.860495 0.356722L0.637278 0.52083L0.721012 0.784163C0.731883 0.818237 0.692846 0.846497 0.663602 0.82566L0.43787 0.665039L0.212137 0.82566C0.182893 0.846452 0.143946 0.818237 0.154727 0.784163L0.238461 0.52083L0.0152446 0.356722C-0.0136401 0.335437 0.00122901 0.289872 0.0371665 0.289559L0.314649 0.287457L0.402426 0.0254211C0.413747 -0.00847369 0.461948 -0.00847369 0.473313 0.0254211Z" transform="translate(2.1376524 5.4829817)" id="Path" fill="#F5F5F5" stroke="none" />
      <path d="M0.473313 0.0254211L0.56109 0.287457L0.838573 0.289559C0.87451 0.289872 0.889379 0.335482 0.860495 0.356722L0.637278 0.52083L0.721012 0.784163C0.731883 0.818237 0.692846 0.846497 0.663602 0.82566L0.43787 0.665039L0.212137 0.82566C0.182893 0.846452 0.143946 0.818237 0.154727 0.784163L0.238461 0.52083L0.0152446 0.356722C-0.0136401 0.335437 0.00122901 0.289872 0.0371665 0.289559L0.314649 0.287457L0.402426 0.0254211C0.413702 -0.00847369 0.461948 -0.00847369 0.473313 0.0254211Z" transform="translate(3.2065234 0.6720711)" id="Path" fill="#F5F5F5" stroke="none" />
      <path d="M0.473313 0.0254546L0.56109 0.287491L0.838573 0.289592C0.87451 0.289905 0.889379 0.335516 0.860495 0.356756L0.637278 0.520864L0.721012 0.784197C0.731883 0.81827 0.692846 0.846531 0.663602 0.825693L0.43787 0.665073L0.212137 0.825693C0.182893 0.846486 0.143946 0.818315 0.154727 0.784197L0.238461 0.520864L0.0152446 0.356756C-0.0136401 0.33556 0.00122901 0.289905 0.0371665 0.289592L0.314649 0.287491L0.402426 0.0254546C0.413702 -0.00848487 0.461948 -0.00848487 0.473313 0.0254546Z" transform="translate(3.2065234 2.042808)" id="Path" fill="#F5F5F5" stroke="none" />
      <path d="M0.473313 0.0254546L0.56109 0.287491L0.838573 0.289592C0.87451 0.289905 0.889379 0.335471 0.860495 0.356756L0.637278 0.520864L0.721012 0.784197C0.731883 0.81827 0.692846 0.846531 0.663602 0.825693L0.43787 0.665073L0.212137 0.825693C0.182893 0.846486 0.143946 0.81827 0.154727 0.784197L0.238461 0.520864L0.0152446 0.356756C-0.0136401 0.335471 0.00122901 0.289905 0.0371665 0.289592L0.314649 0.287491L0.402426 0.0254546C0.413702 -0.00848487 0.461948 -0.00848487 0.473313 0.0254546Z" transform="translate(3.2065234 3.4135342)" id="Path" fill="#F5F5F5" stroke="none" />
      <path d="M0.473313 0.0254211L0.56109 0.287457L0.838573 0.289559C0.87451 0.289872 0.889379 0.335437 0.860495 0.356722L0.637278 0.52083L0.721012 0.784163C0.731883 0.818237 0.692846 0.846497 0.663602 0.82566L0.43787 0.665039L0.212137 0.82566C0.182893 0.846497 0.143946 0.818237 0.154727 0.784163L0.238461 0.52083L0.0152446 0.356722C-0.0136401 0.335437 0.00122901 0.289872 0.0371665 0.289559L0.314649 0.287457L0.402426 0.0254211C0.413702 -0.00847369 0.461948 -0.00847369 0.473313 0.0254211Z" transform="translate(3.2065234 4.7842937)" id="Path" fill="#F5F5F5" stroke="none" />
      <path d="M0.473358 0.025449L0.561135 0.287485L0.838618 0.289587C0.874555 0.2899 0.889424 0.33551 0.86054 0.35675L0.637323 0.520813L0.721057 0.784146C0.731928 0.81822 0.692891 0.84648 0.663647 0.825643L0.43787 0.665067L0.212137 0.825688C0.182893 0.846525 0.143946 0.818265 0.154727 0.784191L0.238461 0.520858L0.0152446 0.356795C-0.0136401 0.33551 0.00122901 0.2899 0.0371665 0.289631L0.314649 0.28753L0.402426 0.0254937C0.413791 -0.00849046 0.461993 -0.00849046 0.473358 0.025449Z" transform="translate(4.275305 5.5867467E-06)" id="Path" fill="#F5F5F5" stroke="none" />
      <path d="M0.473358 0.0254211L0.561135 0.287457L0.838618 0.289559C0.874555 0.289872 0.889424 0.335437 0.86054 0.356722L0.637323 0.52083L0.721057 0.784163C0.731928 0.818237 0.692891 0.846497 0.663647 0.82566L0.43787 0.665039L0.212137 0.82566C0.182893 0.846452 0.143946 0.818237 0.154727 0.784163L0.238461 0.52083L0.0152446 0.356722C-0.0136401 0.335437 0.00122901 0.289872 0.0371665 0.289559L0.314649 0.287457L0.402426 0.0254211C0.413791 -0.00847369 0.461993 -0.00847369 0.473358 0.0254211Z" transform="translate(4.275305 1.3707595)" id="Path" fill="#F5F5F5" stroke="none" />
      <path d="M0.473358 0.0254602L0.561135 0.287496L0.838618 0.289598C0.874555 0.289911 0.889424 0.335477 0.86054 0.356761L0.637323 0.520869L0.721057 0.784202C0.731928 0.818276 0.692891 0.846536 0.663647 0.825699L0.43787 0.665034L0.212137 0.825654C0.182893 0.846447 0.143946 0.818231 0.154727 0.784157L0.238461 0.520825L0.0152446 0.356717C-0.0136401 0.335432 0.00122901 0.289866 0.0371665 0.289553L0.314649 0.287452L0.402426 0.0254155C0.413791 -0.00847928 0.461993 -0.00847928 0.473358 0.0254602Z" transform="translate(4.275305 2.7414908)" id="Path" fill="#F5F5F5" stroke="none" />
      <path d="M0.473358 0.0254546L0.561135 0.287491L0.838618 0.289592C0.874555 0.289905 0.889424 0.335516 0.86054 0.356756L0.637323 0.520864L0.721057 0.784197C0.731928 0.81827 0.692891 0.846531 0.663647 0.825693L0.43787 0.665073L0.212137 0.825693C0.182893 0.846486 0.143946 0.81827 0.154727 0.784197L0.238461 0.520864L0.0152446 0.356756C-0.0136401 0.33556 0.00122901 0.289905 0.0371665 0.289592L0.314649 0.287491L0.402426 0.0254546C0.413791 -0.00848487 0.461993 -0.00848487 0.473358 0.0254546Z" transform="translate(4.275305 4.112222)" id="Path" fill="#F5F5F5" stroke="none" />
      <path d="M0.473358 0.0254211L0.561135 0.287457L0.838618 0.289559C0.874555 0.289872 0.889424 0.335437 0.86054 0.356722L0.637323 0.52083L0.721057 0.784163C0.731928 0.818237 0.692891 0.846497 0.663647 0.82566L0.43787 0.665039L0.212137 0.82566C0.182893 0.846452 0.143946 0.818237 0.154727 0.784163L0.238461 0.52083L0.0152446 0.356722C-0.0136401 0.335437 0.00122901 0.289872 0.0371665 0.289559L0.314649 0.287457L0.402426 0.0254211C0.413791 -0.00847369 0.461993 -0.00847369 0.473358 0.0254211Z" transform="translate(4.275305 5.4829817)" id="Path" fill="#F5F5F5" stroke="none" />
      <path d="M0.473313 0.0254211L0.56109 0.287457L0.838573 0.289559C0.87451 0.289872 0.889379 0.335482 0.860495 0.356722L0.637278 0.52083L0.721012 0.784163C0.731883 0.818237 0.692846 0.846497 0.663602 0.82566L0.43787 0.665039L0.212137 0.82566C0.182893 0.846452 0.143946 0.818237 0.154727 0.784163L0.238461 0.52083L0.0152446 0.356722C-0.0136401 0.335437 0.00122901 0.289872 0.0371665 0.289559L0.314649 0.287457L0.402426 0.0254211C0.413792 -0.00847369 0.461948 -0.00847369 0.473313 0.0254211Z" transform="translate(5.344176 0.6720711)" id="Path" fill="#F5F5F5" stroke="none" />
      <path d="M0.473313 0.0254546L0.56109 0.287491L0.838573 0.289592C0.87451 0.289905 0.889379 0.335516 0.860495 0.356756L0.637278 0.520864L0.721012 0.784197C0.731883 0.81827 0.692846 0.846531 0.663602 0.825693L0.43787 0.665073L0.212137 0.825693C0.182893 0.846486 0.143946 0.818315 0.154727 0.784197L0.238461 0.520864L0.0152446 0.356756C-0.0136401 0.33556 0.00122901 0.289905 0.0371665 0.289592L0.314649 0.287491L0.402426 0.0254546C0.413792 -0.00848487 0.461948 -0.00848487 0.473313 0.0254546Z" transform="translate(5.344176 2.042808)" id="Path" fill="#F5F5F5" stroke="none" />
      <path d="M0.473313 0.0254546L0.56109 0.287491L0.838573 0.289592C0.87451 0.289905 0.889379 0.335471 0.860495 0.356756L0.637278 0.520864L0.721012 0.784197C0.731883 0.81827 0.692846 0.846531 0.663602 0.825693L0.43787 0.665073L0.212137 0.825693C0.182893 0.846486 0.143946 0.81827 0.154727 0.784197L0.238461 0.520864L0.0152446 0.356756C-0.0136401 0.335471 0.00122901 0.289905 0.0371665 0.289592L0.314649 0.287491L0.402426 0.0254546C0.413792 -0.00848487 0.461948 -0.00848487 0.473313 0.0254546Z" transform="translate(5.344176 3.4135342)" id="Path" fill="#F5F5F5" stroke="none" />
      <path d="M0.473313 0.0254211L0.56109 0.287457L0.838573 0.289559C0.87451 0.289872 0.889379 0.335437 0.860495 0.356722L0.637278 0.52083L0.721012 0.784163C0.731883 0.818237 0.692846 0.846497 0.663602 0.82566L0.43787 0.665039L0.212137 0.82566C0.182893 0.846497 0.143946 0.818237 0.154727 0.784163L0.238461 0.52083L0.0152446 0.356722C-0.0136401 0.335437 0.00122901 0.289872 0.0371665 0.289559L0.314649 0.287457L0.402426 0.0254211C0.413792 -0.00847369 0.461948 -0.00847369 0.473313 0.0254211Z" transform="translate(5.344176 4.7842937)" id="Path" fill="#F5F5F5" stroke="none" />
      <path d="M0.473313 0.0254546L0.56109 0.287491L0.838573 0.289592C0.87451 0.289905 0.889379 0.335516 0.860495 0.356756L0.637278 0.520819L0.721012 0.784152C0.731883 0.818226 0.692846 0.846486 0.663602 0.825648L0.43787 0.665028L0.212137 0.825648C0.182893 0.846486 0.143946 0.818226 0.154727 0.784152L0.238461 0.520819L0.0152446 0.356756C-0.0136401 0.335471 0.00122901 0.289861 0.0371665 0.289592L0.314649 0.287491L0.402426 0.0254546C0.413702 -0.00848487 0.461948 -0.00848487 0.473313 0.0254546Z" transform="translate(6.413047 0)" id="Path" fill="#F5F5F5" stroke="none" />
      <path d="M0.473313 0.0254211L0.56109 0.287457L0.838573 0.289559C0.87451 0.289872 0.889379 0.335437 0.860495 0.356722L0.637278 0.52083L0.721012 0.784163C0.731883 0.818237 0.692846 0.846497 0.663602 0.82566L0.43787 0.665039L0.212137 0.82566C0.182893 0.846452 0.143946 0.818237 0.154727 0.784163L0.238461 0.52083L0.0152446 0.356722C-0.0136401 0.335437 0.00122901 0.289872 0.0371665 0.289559L0.314649 0.287457L0.402426 0.0254211C0.413702 -0.00847369 0.461948 -0.00847369 0.473313 0.0254211Z" transform="translate(6.413047 1.3707595)" id="Path" fill="#F5F5F5" stroke="none" />
      <path d="M0.473313 0.0254546L0.56109 0.287491L0.838573 0.289592C0.87451 0.289905 0.889379 0.335471 0.860495 0.356756L0.637278 0.520864L0.721012 0.784197C0.731883 0.81827 0.692846 0.846531 0.663602 0.825693L0.43787 0.665073L0.212137 0.825693C0.182893 0.846486 0.143946 0.818315 0.154727 0.784197L0.238461 0.520864L0.0152446 0.356756C-0.0136401 0.335471 0.00122901 0.289905 0.0371665 0.289592L0.314649 0.287491L0.402426 0.0254546C0.413702 -0.00848487 0.461948 -0.00848487 0.473313 0.0254546Z" transform="translate(6.413047 2.7414966)" id="Path" fill="#F5F5F5" stroke="none" />
      <path d="M0.473313 0.0254546L0.56109 0.287491L0.838573 0.289592C0.87451 0.289905 0.889379 0.335516 0.860495 0.356756L0.637278 0.520864L0.721012 0.784197C0.731883 0.81827 0.692846 0.846531 0.663602 0.825693L0.43787 0.665073L0.212137 0.825693C0.182893 0.846486 0.143946 0.81827 0.154727 0.784197L0.238461 0.520864L0.0152446 0.356756C-0.0136401 0.33556 0.00122901 0.289905 0.0371665 0.289592L0.314649 0.287491L0.402426 0.0254546C0.413702 -0.00848487 0.461948 -0.00848487 0.473313 0.0254546Z" transform="translate(6.413047 4.112222)" id="Path" fill="#F5F5F5" stroke="none" />
      <path d="M0.473313 0.0254211L0.56109 0.287457L0.838573 0.289559C0.87451 0.289872 0.889379 0.335437 0.860495 0.356722L0.637278 0.52083L0.721012 0.784163C0.731883 0.818237 0.692846 0.846497 0.663602 0.82566L0.43787 0.665039L0.212137 0.82566C0.182893 0.846452 0.143946 0.818237 0.154727 0.784163L0.238461 0.52083L0.0152446 0.356722C-0.0136401 0.335437 0.00122901 0.289872 0.0371665 0.289559L0.314649 0.287457L0.402426 0.0254211C0.413702 -0.00847369 0.461948 -0.00847369 0.473313 0.0254211Z" transform="translate(6.413047 5.4829817)" id="Path" fill="#F5F5F5" stroke="none" />
      <path d="M0.473313 0.0254211L0.56109 0.287457L0.838573 0.289559C0.87451 0.289872 0.889379 0.335482 0.860495 0.356722L0.637278 0.52083L0.721012 0.784163C0.731883 0.818237 0.692846 0.846497 0.663602 0.82566L0.43787 0.665039L0.212137 0.82566C0.182893 0.846452 0.143946 0.818237 0.154727 0.784163L0.238461 0.52083L0.0152446 0.356722C-0.0136401 0.335437 0.00122901 0.289872 0.0371665 0.289559L0.314649 0.287457L0.402426 0.0254211C0.413747 -0.00847369 0.461948 -0.00847369 0.473313 0.0254211Z" transform="translate(7.481873 0.6720711)" id="Path" fill="#F5F5F5" stroke="none" />
      <path d="M0.473313 0.0254546L0.56109 0.287491L0.838573 0.289592C0.87451 0.289905 0.889379 0.335516 0.860495 0.356756L0.637278 0.520864L0.721012 0.784197C0.731883 0.81827 0.692846 0.846531 0.663602 0.825693L0.43787 0.665073L0.212137 0.825693C0.182893 0.846486 0.143946 0.818315 0.154727 0.784197L0.238461 0.520864L0.0152446 0.356756C-0.0136401 0.33556 0.00122901 0.289905 0.0371665 0.289592L0.314649 0.287491L0.402426 0.0254546C0.413747 -0.00848487 0.461948 -0.00848487 0.473313 0.0254546Z" transform="translate(7.481873 2.042808)" id="Path" fill="#F5F5F5" stroke="none" />
      <path d="M0.473313 0.0254546L0.56109 0.287491L0.838573 0.289592C0.87451 0.289905 0.889379 0.335471 0.860495 0.356756L0.637278 0.520864L0.721012 0.784197C0.731883 0.81827 0.692846 0.846531 0.663602 0.825693L0.43787 0.665073L0.212137 0.825693C0.182893 0.846486 0.143946 0.81827 0.154727 0.784197L0.238461 0.520864L0.0152446 0.356756C-0.0136401 0.335471 0.00122901 0.289905 0.0371665 0.289592L0.314649 0.287491L0.402426 0.0254546C0.413747 -0.00848487 0.461948 -0.00848487 0.473313 0.0254546Z" transform="translate(7.481873 3.4135342)" id="Path" fill="#F5F5F5" stroke="none" />
      <path d="M0.473313 0.0254211L0.56109 0.287457L0.838573 0.289559C0.87451 0.289872 0.889379 0.335437 0.860495 0.356722L0.637278 0.52083L0.721012 0.784163C0.731883 0.818237 0.692846 0.846497 0.663602 0.82566L0.43787 0.665039L0.212137 0.82566C0.182893 0.846497 0.143946 0.818237 0.154727 0.784163L0.238461 0.52083L0.0152446 0.356722C-0.0136401 0.335437 0.00122901 0.289872 0.0371665 0.289559L0.314649 0.287457L0.402426 0.0254211C0.413747 -0.00847369 0.461948 -0.00847369 0.473313 0.0254211Z" transform="translate(7.481873 4.7842937)" id="Path" fill="#F5F5F5" stroke="none" />
      <path d="M0.473313 0.0254546L0.56109 0.287491L0.838573 0.289592C0.87451 0.289905 0.889379 0.335516 0.860495 0.356756L0.637278 0.520819L0.721012 0.784152C0.731883 0.818226 0.692846 0.846486 0.663602 0.825648L0.43787 0.665028L0.212137 0.825648C0.182893 0.846486 0.143946 0.818226 0.154727 0.784152L0.238461 0.520819L0.0152446 0.356756C-0.0136401 0.335471 0.00122901 0.289861 0.0371665 0.289592L0.314649 0.287491L0.402426 0.0254546C0.413747 -0.00848487 0.461903 -0.00848487 0.473313 0.0254546Z" transform="translate(8.550744 0)" id="Path" fill="#F5F5F5" stroke="none" />
      <path d="M0.473313 0.0254211L0.56109 0.287457L0.838573 0.289559C0.87451 0.289872 0.889379 0.335437 0.860495 0.356722L0.637278 0.52083L0.721012 0.784163C0.731883 0.818237 0.692846 0.846497 0.663602 0.82566L0.43787 0.665039L0.212137 0.82566C0.182893 0.846452 0.143946 0.818237 0.154727 0.784163L0.238461 0.52083L0.0152446 0.356722C-0.0136401 0.335437 0.00122901 0.289872 0.0371665 0.289559L0.314649 0.287457L0.402426 0.0254211C0.413747 -0.00847369 0.461903 -0.00847369 0.473313 0.0254211Z" transform="translate(8.550744 1.3707595)" id="Path" fill="#F5F5F5" stroke="none" />
      <path d="M0.473313 0.0254546L0.56109 0.287491L0.838573 0.289592C0.87451 0.289905 0.889379 0.335471 0.860495 0.356756L0.637278 0.520864L0.721012 0.784197C0.731883 0.81827 0.692846 0.846531 0.663602 0.825693L0.43787 0.665073L0.212137 0.825693C0.182893 0.846486 0.143946 0.818315 0.154727 0.784197L0.238461 0.520864L0.0152446 0.356756C-0.0136401 0.335471 0.00122901 0.289905 0.0371665 0.289592L0.314649 0.287491L0.402426 0.0254546C0.413747 -0.00848487 0.461903 -0.00848487 0.473313 0.0254546Z" transform="translate(8.550744 2.7414966)" id="Path" fill="#F5F5F5" stroke="none" />
      <path d="M0.473313 0.0254546L0.56109 0.287491L0.838573 0.289592C0.87451 0.289905 0.889379 0.335516 0.860495 0.356756L0.637278 0.520864L0.721012 0.784197C0.731883 0.81827 0.692846 0.846531 0.663602 0.825693L0.43787 0.665073L0.212137 0.825693C0.182893 0.846486 0.143946 0.81827 0.154727 0.784197L0.238461 0.520864L0.0152446 0.356756C-0.0136401 0.33556 0.00122901 0.289905 0.0371665 0.289592L0.314649 0.287491L0.402426 0.0254546C0.413747 -0.00848487 0.461903 -0.00848487 0.473313 0.0254546Z" transform="translate(8.550744 4.112222)" id="Path" fill="#F5F5F5" stroke="none" />
      <path d="M0.473313 0.0254211L0.56109 0.287457L0.838573 0.289559C0.87451 0.289872 0.889379 0.335437 0.860495 0.356722L0.637278 0.52083L0.721012 0.784163C0.731883 0.818237 0.692846 0.846497 0.663602 0.82566L0.43787 0.665039L0.212137 0.82566C0.182893 0.846452 0.143946 0.818237 0.154727 0.784163L0.238461 0.52083L0.0152446 0.356722C-0.0136401 0.335437 0.00122901 0.289872 0.0371665 0.289559L0.314649 0.287457L0.402426 0.0254211C0.413747 -0.00847369 0.461903 -0.00847369 0.473313 0.0254211Z" transform="translate(8.550744 5.4829817)" id="Path" fill="#F5F5F5" stroke="none" />
    </g>
  </g>
</svg>