<?xml version="1.0" encoding="utf-8"?>
<svg width="23px" height="15px" viewBox="0 0 23 15" version="1.1" xmlns:xlink="http://www.w3.org/1999/xlink" xmlns="http://www.w3.org/2000/svg">
  <g id="panama">
    <g id="Group">
      <path d="M11.5 0.393437L0.39657 0.393437L0.39657 7.475C0.39657 7.69226 0.218994 7.86844 0 7.86844L10.174 7.86844C11.1254 7.86844 11.8966 7.10336 11.8966 6.15952L11.8966 0C11.8966 0.217264 11.719 0.393437 11.5 0.393437Z" transform="translate(11.10343 7.0815625)" id="Path" fill="#F5F5F5" stroke="none" />
      <path d="M0.39657 7.475L11.5 7.475L11.5 0.393437C11.5 0.176173 11.6776 0 11.8966 0L1.72253 0C0.771174 4.4567e-05 0 0.765126 0 1.70897L0 7.86844C0 7.65117 0.177576 7.475 0.39657 7.475Z" id="Path" fill="#F5F5F5" stroke="none" />
    </g>
    <path d="M9.77747 0L0.39657 0C0.177576 0 0 0.176173 0 0.393437L0 7.47496L11.1034 7.47496C11.3224 7.47496 11.5 7.29878 11.5 7.08152L11.5 1.70892C11.5 0.765082 10.7288 0 9.77747 0Z" transform="translate(11.5 6.1035156E-05)" id="Path" fill="#FF4B55" stroke="none" />
    <g id="Group" transform="translate(0 1.9503784)">
      <path d="M11.5 7.08156L11.5 0L0.39657 0C0.177576 0 0 0.176173 0 0.393437L0 5.76608C0 6.70987 0.771174 7.475 1.72253 7.475L11.1035 7.475C11.3224 7.47496 11.5 7.29883 11.5 7.08156Z" transform="translate(0 5.524631)" id="Path" fill="#4173CD" stroke="none" />
      <path d="M2.03855 0.109161L2.41661 1.23376L3.61154 1.24295C3.76625 1.2441 3.83039 1.44002 3.70592 1.53116L2.74468 2.23536L3.10509 3.36567C3.15171 3.51203 2.9838 3.63303 2.85793 3.54381L1.88582 2.85449L0.913662 3.54385C0.787791 3.63312 0.619873 3.51203 0.666502 3.36572L1.02691 2.23541L0.0656718 1.53121C-0.0588067 1.44002 0.00538667 1.24415 0.160053 1.24299L1.35497 1.23381L1.73304 0.109206C1.782 -0.0363945 1.98963 -0.0363945 2.03855 0.109161Z" transform="translate(3.8641837 0)" id="Path" fill="#4173CD" stroke="none" />
    </g>
    <path d="M2.03855 0.109195L2.41661 1.2338L3.61154 1.24298C3.76625 1.24414 3.83039 1.44005 3.70592 1.53119L2.74468 2.2354L3.10509 3.36571C3.15171 3.51206 2.9838 3.63306 2.85793 3.54384L1.88582 2.85452L0.913662 3.54388C0.787791 3.63315 0.619873 3.51206 0.666502 3.36575L1.02691 2.23544L0.0656718 1.53124C-0.0588067 1.44005 0.00538667 1.24418 0.160053 1.24302L1.35497 1.23384L1.73304 0.109239C1.782 -0.0364057 1.98963 -0.0364057 2.03855 0.109195Z" transform="translate(15.364258 9.425293)" id="Path" fill="#FF4B55" stroke="none" />
  </g>
</svg>