<?xml version="1.0" encoding="utf-8"?>
<svg width="23px" height="16px" viewBox="0 0 23 16" version="1.1" xmlns:xlink="http://www.w3.org/1999/xlink" xmlns="http://www.w3.org/2000/svg">
  <g id="ecuador">
    <path d="M0 2.04198C0 2.99202 0.771174 3.76221 1.72253 3.76221L21.2775 3.76221C22.2288 3.76221 23 2.99206 23 2.04198L23 0L0 0L0 2.04198Z" transform="translate(0 11.286621)" id="Path" fill="#FF4B55" stroke="none" />
    <path d="M21.2775 0L1.72253 0C0.771174 0 0 0.770144 0 1.72023L0 7.52441L23 7.52441L23 1.72023C23 0.770144 22.2288 0 21.2775 0Z" id="Path" fill="#FFE15A" stroke="none" />
    <path d="M0 0L23 0L23 3.76212L0 3.76212L0 0Z" transform="translate(0 7.524414)" id="Rectangle" fill="#41479B" stroke="none" />
    <path d="M0 2.47943L2.89656 0L2.89656 3.58837C2.89656 4.19315 2.40561 4.68336 1.80011 4.68336L1.80011 4.68336C1.52923 4.68336 1.26792 4.58322 1.06658 4.4023L0 3.44369L0 2.47943L0 2.47943Z" transform="translate(11.0859375 5.267212)" id="Path" fill="#FFE15A" stroke="none" />
    <path d="M0.838242 3.3L0 2.54658L0 1.29875L1.51724 0L1.51724 0.907152L1.51724 2.99803C1.51724 3.22207 1.33472 3.4043 1.11042 3.4043C1.00975 3.4043 0.913082 3.36724 0.838242 3.3Z" transform="translate(11.775879 5.857544)" id="Path" fill="#FF4B55" stroke="none" />
    <path d="M0.413775 0.944477L0.413775 2.36288L1.10342 2.98475L1.10342 0.898449L1.10342 0.354229L1.51724 0L1.51724 0.907152L1.51724 2.99803C1.51724 3.22207 1.33472 3.4043 1.11042 3.4043C1.00975 3.4043 0.913082 3.36729 0.838242 3.3L0 2.54658L0 1.29875L0.413775 0.944477Z" transform="translate(11.775879 5.857666)" id="Path" fill="#41479B" stroke="none" />
    <path d="M2.89656 2.47943L0 0L0 3.58837C0 4.19315 0.490951 4.68336 1.09645 4.68336L1.09645 4.68336C1.36733 4.68336 1.62864 4.58322 1.82998 4.4023L2.89656 3.44369L2.89656 2.47943Z" transform="translate(9.01709 5.267212)" id="Path" fill="#FFE15A" stroke="none" />
    <path d="M0.678994 3.3L1.51724 2.54658L1.51724 1.29875L0 0L0 0.907152L0 2.99803C0 3.22207 0.182518 3.4043 0.406813 3.4043C0.507482 3.4043 0.604154 3.36724 0.678994 3.3Z" transform="translate(9.707031 5.857544)" id="Path" fill="#FF4B55" stroke="none" />
    <g id="Group" transform="translate(8.91748 5.279541)">
      <path d="M1.10346 0.944477L1.10346 2.36288L0.41382 2.98475L0.41382 0.898449L0.41382 0.354229L0 0L0 0.907152L0 2.99803C0 3.22207 0.182518 3.4043 0.406813 3.4043C0.507482 3.4043 0.604154 3.36729 0.678994 3.3L1.51724 2.54658L1.51724 1.29875L1.10346 0.944477Z" transform="translate(0.789457 0.5781351)" id="Path" fill="#41479B" stroke="none" />
      <path d="M0 0L0.198285 0L0.198285 1.18655L0 1.18655L0 0Z" transform="translate(4.9652147 0)" id="Rectangle" fill="#41479B" stroke="none" />
      <path d="M0 0L0.198285 0L0.198285 1.18655L0 1.18655L0 0Z" id="Rectangle" fill="#41479B" stroke="none" />
    </g>
    <g id="Group" transform="translate(8.327637 3.564209)">
      <path d="M2.75861 1.15202C2.75861 1.15202 3.03447 -0.156603 2.06897 0.0156218C1.10346 0.187802 1.10346 0.463254 0 1.01429C0 1.01429 1.24142 1.28979 1.7931 1.15206C1.7931 1.15206 2.20692 1.70301 2.6207 1.84078L3.03452 1.84078L2.75861 1.15202Z" id="Path" fill="#5A4646" stroke="none" />
      <path d="M0.27591 1.15202C0.27591 1.15202 4.49219e-05 -0.156603 0.965551 0.0156218C1.93106 0.187802 1.93106 0.463254 3.03452 1.01429C3.03452 1.01429 1.7931 1.28979 1.24142 1.15206C1.24142 1.15206 0.827596 1.70301 0.41382 1.84078L0 1.84078L0.27591 1.15202Z" transform="translate(3.3103378 0)" id="Path" fill="#5A4646" stroke="none" />
      <path d="M0.827596 1.10199L0 1.10199L0 0.408153C0 0.182722 0.182967 0 0.408699 0L0.418852 0C0.644584 0 0.827551 0.182722 0.827551 0.408153L0.827551 1.10199L0.827596 1.10199L0.827596 1.10199Z" transform="translate(2.7586524 0.7387504)" id="Path" fill="#5A4646" stroke="none" />
    </g>
    <path d="M0.275865 0.550994C0.428221 0.550994 0.55173 0.427649 0.55173 0.275497C0.55173 0.123344 0.428221 0 0.275865 0C0.123509 0 0 0.123344 0 0.275497C0 0.427649 0.123509 0.550994 0.275865 0.550994Z" transform="translate(11.224121 4.4405518)" id="Oval" fill="#E6E1CD" stroke="none" />
    <path d="M0 0.235345L0.518668 0.511964C0.562197 0.535202 0.615789 0.527217 0.650604 0.492359L0.650604 0.492359C0.694357 0.448664 0.694357 0.377872 0.650604 0.334131L0.316025 0L0.23557 0C0.105477 1.27505e-15 0 0.105336 0 0.235345L0 0.235345Z" transform="translate(10.908203 4.3029785)" id="Path" fill="#FFD0AF" stroke="none" />
    <path d="M0.415482 0.275452L0 0.275452L0.181799 0.0628964C0.215939 0.0229693 0.265848 0 0.318451 0L0.551686 0L0.551686 0.139431C0.551686 0.21453 0.490682 0.275452 0.415482 0.275452Z" transform="translate(10.672363 4.3030396)" id="Path" fill="#FFAF94" stroke="none" />
    <g id="Group" transform="translate(9.292969 5.0161743)">
      <path d="M0.0909063 0.389133C-0.00217186 0.278862 -0.0220273 0.132657 0.0233438 0.00596728C0.156043 -0.0171815 0.296963 0.0270972 0.389996 0.137457C0.469508 0.231712 0.492553 0.351538 0.470137 0.463693C0.497719 0.510439 0.53141 0.570554 0.568471 0.641526C0.570313 0.631432 0.569908 0.621427 0.572783 0.611334C0.605307 0.497115 0.696004 0.416274 0.803457 0.388908C0.880408 0.468673 0.914998 0.585089 0.882475 0.699263C0.854533 0.79751 0.782434 0.868706 0.694701 0.904775C0.729336 0.984136 0.763611 1.06973 0.795641 1.16004C0.797482 1.15475 0.797617 1.14936 0.799773 1.14411C0.844695 1.03416 0.943793 0.963813 1.05358 0.948426C1.12123 1.03613 1.1428 1.15564 1.09792 1.2656C1.05861 1.36178 0.97708 1.42522 0.883912 1.45048C0.931844 1.63948 0.963648 1.84001 0.963648 2.04189L0.825693 2.04189C0.825693 1.86594 0.79865 1.68972 0.757816 1.52113C0.672689 1.54859 0.57759 1.54271 0.495248 1.49238C0.394803 1.43092 0.341795 1.32289 0.344266 1.2132C0.441027 1.16116 0.561463 1.15923 0.661908 1.22074C0.665547 1.22298 0.667973 1.22617 0.671477 1.2285C0.641918 1.14371 0.610473 1.06327 0.578174 0.987814C0.495383 1.02689 0.397947 1.0329 0.308553 0.991C0.201908 0.941023 0.137355 0.839411 0.127697 0.730128C0.217811 0.667949 0.336898 0.652876 0.443184 0.702313C0.40518 0.629413 0.370949 0.568401 0.344086 0.522776C0.249076 0.51183 0.15757 0.468134 0.0909063 0.389133Z" transform="translate(3.29233 0)" id="Path" fill="#8CB400" stroke="none" />
      <path d="M1.03059 0.389133C1.12362 0.278862 1.14352 0.132657 1.09815 0.00596728C0.965451 -0.0171815 0.824531 0.0270972 0.731498 0.137457C0.651986 0.231712 0.628941 0.351538 0.651358 0.463693C0.623775 0.510439 0.590084 0.570554 0.553024 0.641526C0.551182 0.631432 0.551586 0.621427 0.548711 0.611334C0.516188 0.497115 0.42549 0.416274 0.318037 0.388908C0.241086 0.468673 0.206496 0.585089 0.23902 0.699263C0.266961 0.79751 0.339061 0.868706 0.426793 0.904775C0.392158 0.984136 0.357883 1.06973 0.325854 1.16004C0.324012 1.15475 0.323877 1.14936 0.321721 1.14411C0.276799 1.03416 0.177701 0.963813 0.0679122 0.948426C0.000259822 1.03613 -0.0213027 1.15564 0.0236192 1.2656C0.0629258 1.36178 0.144459 1.42522 0.237627 1.45048C0.189695 1.63948 0.157891 1.84001 0.157891 2.04189L0.295846 2.04189C0.295846 1.86594 0.322889 1.68972 0.363723 1.52113C0.44885 1.54859 0.543949 1.54271 0.626246 1.49238C0.726736 1.43092 0.779699 1.32289 0.777229 1.2132C0.680467 1.16116 0.560031 1.15923 0.459586 1.22074C0.455947 1.22298 0.453522 1.22617 0.450018 1.2285C0.479576 1.14371 0.511022 1.06327 0.54332 0.987814C0.626111 1.02689 0.723547 1.0329 0.812941 0.991C0.919586 0.941023 0.984139 0.839411 0.993797 0.730128C0.903684 0.667949 0.784596 0.652876 0.678311 0.702313C0.71627 0.629413 0.750545 0.568401 0.777408 0.522776C0.872418 0.51183 0.963924 0.468134 1.03059 0.389133Z" id="Path" fill="#8CB400" stroke="none" />
    </g>
    <path d="M2.89656 2.47943L0 0L0 3.58837C0 4.19315 0.490951 4.68336 1.09645 4.68336L1.09645 4.68336C1.36733 4.68336 1.62864 4.58322 1.82998 4.4023L2.89656 3.44369L2.89656 2.47943Z" transform="translate(8.603516 5.9559326)" id="Path" fill="#FFE15A" stroke="none" />
    <path d="M0.678994 3.3L1.51724 2.54658L1.51724 1.29875L0 0L0 0.907152L0 2.99803C0 3.22207 0.182518 3.4043 0.406813 3.4043C0.507527 3.4043 0.604154 3.36729 0.678994 3.3Z" transform="translate(9.292969 6.5462646)" id="Path" fill="#FF4B55" stroke="none" />
    <path d="M1.10346 0.944522L1.10346 2.36292L0.41382 2.9848L0.41382 0.898494L0.41382 0.354229L0 0L0 0.907152L0 2.99803C0 3.22207 0.182518 3.4043 0.406813 3.4043C0.507482 3.4043 0.604154 3.36729 0.678994 3.3L1.51724 2.54658L1.51724 1.29875L1.10346 0.944522Z" transform="translate(9.292969 6.5463257)" id="Path" fill="#41479B" stroke="none" />
    <path d="M0 2.47943L2.89656 0L2.89656 3.58837C2.89656 4.19315 2.40561 4.68336 1.80011 4.68336L1.80011 4.68336C1.52923 4.68336 1.26792 4.58322 1.06658 4.4023L0 3.44369L0 2.47943Z" transform="translate(11.5 5.9559326)" id="Path" fill="#FFE15A" stroke="none" />
    <path d="M0.838242 3.3L0 2.54658L0 1.29875L1.51724 0L1.51724 0.907152L1.51724 2.99803C1.51724 3.22207 1.33472 3.4043 1.11042 3.4043C1.00975 3.4043 0.913082 3.36729 0.838242 3.3Z" transform="translate(12.189453 6.5462646)" id="Path" fill="#FF4B55" stroke="none" />
    <path d="M0.413775 0.944522L0.413775 2.36292L1.10342 2.9848L1.10342 0.898494L1.10342 0.354229L1.51724 0L1.51724 0.907152L1.51724 2.99803C1.51724 3.22207 1.33472 3.4043 1.11042 3.4043C1.00975 3.4043 0.913082 3.36729 0.838242 3.3L0 2.54658L0 1.29875L0.413775 0.944522Z" transform="translate(12.189453 6.5463257)" id="Path" fill="#41479B" stroke="none" />
    <path d="M1.37933 4.13268C2.14111 4.13268 2.75865 3.20755 2.75865 2.06634C2.75865 0.925131 2.14111 0 1.37933 0C0.617545 0 0 0.925131 0 2.06634C0 3.20755 0.617545 4.13268 1.37933 4.13268Z" transform="translate(10.120605 5.404663)" id="Oval" fill="#69C3FF" stroke="none" />
    <path d="M0 1.23967L2.48274 1.23967L2.6207 0.68872L1.99211 0.793382C1.86601 0.814378 1.73704 0.778488 1.63996 0.695404L0.926424 0.0846095C0.86268 0.0300575 0.781416 0 0.697457 0L0.697457 0C0.604154 0 0.514625 0.0370111 0.44868 0.102913L1.27676e-15 0.550994L1.27676e-15 1.23967L0 1.23967Z" transform="translate(10.258789 6.7824707)" id="Path" fill="#009B64" stroke="none" />
    <path d="M1.1106 0.596214L1.34752 0.44503L0.926424 0.0846095C0.86268 0.0300575 0.781416 0 0.697457 0L0.697457 0C0.604154 0 0.514625 0.0370111 0.44868 0.102913L0 0.550994L0 0.688764L0.689641 0.550994L0.811559 0.611871C0.907107 0.659604 1.02067 0.653593 1.1106 0.596214Z" transform="translate(10.258301 6.7824097)" id="Path" fill="#F5F5F5" stroke="none" />
    <path d="M0 0L0.137955 0.826446L0.827596 1.51521L1.24142 1.51521L1.7931 1.37748L2.34488 0.826446L2.48279 0L0 0Z" transform="translate(10.258789 8.022156)" id="Path" fill="#5AA0E6" stroke="none" />
    <path d="M1.51724 4.40795C0.680611 4.40795 0 3.41924 0 2.20397C0 0.988711 0.680611 0 1.51724 0C2.35386 0 3.03447 0.988711 3.03447 2.20397C3.03447 3.41924 2.35386 4.40795 1.51724 4.40795ZM1.51724 0.275587C0.832807 0.275587 0.27582 1.1407 0.27582 2.20402C0.27582 3.26734 0.832717 4.1325 1.51724 4.1325C2.20176 4.1325 2.75861 3.26738 2.75861 2.20402C2.75861 1.14066 2.20167 0.275587 1.51724 0.275587Z" transform="translate(9.98291 5.267151)" id="Shape" fill="#FFC88C" stroke="none" />
    <g id="Group" transform="translate(9.561523 9.261902)">
      <path d="M1 0.271981C0.880234 0.107169 0.701936 0 0.5 0C0.298064 0 0.119765 0.107169 0 0.271981C0.204262 0.328418 0.371394 0.493693 0.45054 0.711556C0.482412 0.799295 0.500047 0.895567 0.500047 0.996754C0.5 0.644454 0.713521 0.351094 1 0.271981Z" id="Path" fill="#E1E1E1" stroke="none" />
      <path d="M0.221757 0.0033389C0.221757 0.0033389 0.210543 0.193192 0.112926 0.282183L0.108831 0.278844C0.0111669 0.189853 0 0 0 0L0.221757 0.0033389Z" transform="translate(0.39168063 0.7178167)" id="Path" fill="#E1E1E1" stroke="none" />
    </g>
    <path d="M3.5181 0.137726L0.0681016 0.137726C0.030457 0.137726 0 0.107265 0 0.0697154L0 0.0680106C0 0.0304164 0.030502 0 0.0681016 0L3.5181 0C3.55575 0 3.5862 0.0304612 3.5862 0.0680106L3.5862 0.0697154C3.5862 0.107265 3.55575 0.137726 3.5181 0.137726Z" transform="translate(9.707031 9.881714)" id="Path" fill="#966446" stroke="none" />
    <path d="M1.65861 0.551039L0.272496 0.551039C0.122008 0.551039 0 0.429194 0 0.278906L0 0.272132C0 0.121845 0.122008 0 0.272496 0L1.65861 0C1.80909 0 1.9311 0.121845 1.9311 0.272132L1.9311 0.278906C1.9311 0.429194 1.80909 0.551039 1.65861 0.551039Z" transform="translate(10.53418 9.675049)" id="Path" fill="#BE915A" stroke="none" />
    <path d="M0.551686 0L0.0689551 0C0.0309063 0 0 0.0308201 0 0.068863C0 0.106906 0.0308613 0.137726 0.0689551 0.137726L0.551686 0.137726L0.551686 0Z" transform="translate(9.707031 9.881714)" id="Path" fill="#B9B9B9" stroke="none" />
    <path d="M0.551686 0L0.551686 1.25856L0 1.10199L0.27582 0L0.551686 0Z" transform="translate(10.948242 10.226074)" id="Path" fill="#FF4B55" stroke="none" />
    <path d="M0.827551 0L0.551686 0.964261L0 0.82649L0.41382 0L0.827551 0Z" transform="translate(10.534668 10.226074)" id="Path" fill="#41479B" stroke="none" />
    <path d="M0.41382 0L0 0.550994L0.41382 0.68872L0.689641 0L0.41382 0Z" transform="translate(10.396484 10.226074)" id="Path" fill="#FFE15A" stroke="none" />
    <path d="M0 0L0 1.25856L0.551686 1.10199L0.275865 0L0 0Z" transform="translate(11.5 10.226074)" id="Path" fill="#FF4B55" stroke="none" />
    <path d="M0 0L0.275865 0.964261L0.827551 0.82649L0.41373 0L0 0Z" transform="translate(11.638184 10.226074)" id="Path" fill="#41479B" stroke="none" />
    <path d="M0.27582 0L0.689641 0.550994L0.27582 0.68872L0 0L0.27582 0Z" transform="translate(11.9140625 10.226074)" id="Path" fill="#FFE15A" stroke="none" />
    <g id="Group" transform="translate(8.504395 5.9558105)">
      <path d="M0.198285 1.18646L0 0.986917L0 0L0.198285 0L0.198285 1.18646Z" id="Path" fill="#41479B" stroke="none" />
      <path d="M0.198285 0.986917L0 1.18646L0 0L0.198285 0L0.198285 0.986917Z" transform="translate(5.7912383 0)" id="Path" fill="#41479B" stroke="none" />
    </g>
  </g>
</svg>