<?xml version="1.0" encoding="UTF-8"?>
<svg width="43px" height="30px" viewBox="0 0 43 30" version="1.1" xmlns="http://www.w3.org/2000/svg" xmlns:xlink="http://www.w3.org/1999/xlink">
    <title>Group 30</title>
    <g id="Plantilla-1---Menus-desplegados" stroke="none" stroke-width="1" fill="none" fill-rule="evenodd">
        <g id="Menu-Soluciones" transform="translate(-376.000000, -126.000000)">
            <g id="Group-13" transform="translate(86.000000, 95.000000)">
                <g id="Group-30" transform="translate(290.000000, 31.000000)">
                    <rect id="Rectangle" fill="#FFFFFF" opacity="0" x="0" y="0" width="43" height="30"></rect>
                    <g id="Group-6" transform="translate(1.000000, 2.893769)">
                        <path d="M27.9076983,2.98076217 C27.814557,3.12742011 27.6820671,3.24727504 27.5117229,3.3231326 C27.4927958,3.33172979 27.4743668,3.34184413 27.4564358,3.35246418 C27.4365125,3.35853279 27.4170873,3.36510711 27.3976621,3.3737043 L23.7367575,4.99907882 C23.5888271,5.06482203 23.4832336,5.20389421 23.4583295,5.36622938 L22.74657,10.0041602 L20.7094135,10.9083822 L21.420675,6.84545167 C21.451058,6.66946215 21.3848131,6.49246119 21.2468443,6.38221488 C21.1088755,6.27196857 20.924087,6.25325704 20.7627083,6.32456314 L12.4522059,10.0198374 L10.7019448,10.0198374 L6.52701933,7.47102363 L8.65980756,6.52128706 L11.4291449,8.24729926 C11.5616348,8.32973114 11.7250058,8.34085691 11.8674573,8.27764229 L19.9279225,4.69817719 L19.9284206,4.69817719 L22.3406329,3.62706853 L23.0170286,3.32717833 L26.6774352,1.70180382 C26.6968604,1.69320663 26.7147913,1.68309229 26.7327223,1.67196651 C26.7526456,1.66640363 26.7725689,1.6598293 26.7919941,1.65123211 L26.7919941,1.6507264 C26.9105377,1.59863754 27.0310736,1.57435944 27.1511114,1.57435944 C27.3239459,1.57385741 27.493792,1.62544055 27.6382358,1.71950391 C27.7826797,1.814073 27.9007252,1.94859373 27.9754375,2.12154895 C28.0272381,2.2419096 28.0506479,2.36429312 28.051146,2.48617092 C28.051146,2.66114901 28.0003416,2.83410423 27.9076983,2.98076217 L27.9076983,2.98076217 Z M17.109275,1.93746795 L19.1578873,1.02768302 L21.8315929,2.80123263 L19.7829805,3.71051184 L17.109275,1.93746795 Z M28.1507625,0.908333806 C27.8544035,0.715149903 27.5077383,0.610466479 27.1511114,0.610466479 C26.9035645,0.610466479 26.6515349,0.661543898 26.4114592,0.767744473 C26.3915359,0.77684738 26.3721107,0.787467437 26.3541798,0.799098929 C26.3362488,0.804156099 26.3188159,0.81073042 26.3013831,0.818821893 L22.8725848,2.3400187 L19.4622156,0.0784521689 C19.3282314,-0.0105540274 19.1598796,-0.0247141041 19.0129454,0.0405233921 L15.9238392,1.41152225 C15.7644529,1.48232263 15.655871,1.63707204 15.6414266,1.81306156 C15.6269822,1.9895568 15.7086677,2.15998344 15.8546058,2.25657539 L18.743981,4.1727372 L11.7155422,7.29250552 L8.94570678,5.56548188 C8.8132169,5.48305001 8.64934783,5.47141852 8.50689631,5.53463314 L5.30372931,6.95670942 C5.14135449,7.02902695 5.03177639,7.1878221 5.0203205,7.36735164 C5.00886461,7.54688118 5.09802133,7.72438786 5.24993642,7.81693408 L8.85655005,10.0198374 L14.8220813,10.0198374 L20.330871,7.56862702 L19.6196096,11.6295347 C19.5887285,11.8050185 19.6554715,11.9805023 19.7934403,12.0907486 C19.9314091,12.200995 20.1161976,12.2247637 20.2770781,12.1529518 L23.3656862,10.7814473 C23.5141147,10.7157041 23.6197082,10.5766319 23.6446123,10.4142967 L24.3563718,5.77586017 L27.7776989,4.25668622 C27.7971241,4.24808903 27.8155531,4.23797469 27.832986,4.22735464 C27.8529093,4.22179175 27.8728326,4.21471171 27.8922578,4.20611452 C28.2379269,4.05288226 28.517351,3.80204662 28.7066223,3.50114499 C28.8968897,3.20024336 28.9999964,2.84826431 28.9999964,2.48617092 C29.0004908,2.23482956 28.9501845,1.97893675 28.8450891,1.73518114 C28.6941702,1.38421353 28.4471214,1.10101199 28.1507625,0.908333806 L28.1507625,0.908333806 Z" id="Fill-1" fill="#DF1995"></path>
                        <g id="Group-5" transform="translate(0.000000, 10.020040)" fill="#009A44">
                            <path d="M27.1878201,14.0442675 L25.1964872,14.0442675 C25.1646099,13.898621 25.1207787,13.744883 25.0610088,13.6012594 C24.8792088,13.1653313 24.577869,12.7996979 24.1968361,12.5377365 C23.8163012,12.2762808 23.354579,12.1250714 22.8609795,12.1250714 C22.5327433,12.1250714 22.2174572,12.1938489 21.931558,12.3167381 C21.501713,12.5013248 21.1381129,12.801215 20.8806044,13.1885943 C20.7102603,13.4444871 20.5867359,13.7534802 20.5229814,14.0442675 L18.268163,14.0442675 L18.268163,5.2786743 L23.9388295,5.2786743 L27.1878201,11.321487 L27.1878201,14.0442675 Z M24.1888668,15.1214447 C24.0797868,15.3834062 23.8964925,15.6074388 23.6668766,15.7652225 C23.4362645,15.9230062 23.1618212,16.014541 22.8619756,16.014541 C22.6617466,16.014541 22.4734715,15.9735779 22.3016331,15.8997432 C22.0436265,15.7894969 21.8229761,15.6033931 21.6675744,15.3697518 C21.5121727,15.1361105 21.4220198,14.8569547 21.4220198,14.5525131 C21.4220198,14.3497206 21.4623645,14.1585595 21.5350845,13.9840872 C21.6436664,13.7221257 21.8269607,13.4980931 22.0570747,13.3403094 C22.2876868,13.1825257 22.5621301,13.0909909 22.8619756,13.0909909 C23.0617066,13.0909909 23.2499817,13.131954 23.4223182,13.2052829 C23.6803248,13.316035 23.9009752,13.5021388 24.0558788,13.7357801 C24.2112805,13.9699271 24.3014334,14.2480714 24.3019314,14.5525131 C24.3019314,14.7558113 24.2615868,14.9469724 24.1888668,15.1214447 L24.1888668,15.1214447 Z M17.3143355,14.0442675 L12.8664609,14.0442675 C12.8345836,13.898621 12.7877639,13.744883 12.727994,13.6012594 C12.546194,13.1653313 12.2443561,12.7996979 11.8628251,12.5377365 C11.4822903,12.2762808 11.02007,12.1250714 10.5269685,12.1250714 C10.1982342,12.1250714 9.88245008,12.1938489 9.59655086,12.3167381 C9.16720396,12.5013248 8.80360391,12.8088008 8.54609538,13.1956743 C8.43253263,13.3655952 8.33988933,13.5516991 8.27165206,13.7494345 C8.25521534,13.7018971 8.23778246,13.6543597 8.21835726,13.6083394 C8.03655723,13.1724113 7.7342213,12.8027322 7.35318837,12.5412765 C6.97215545,12.2798208 6.50993511,12.1265885 6.01683368,12.1265885 C5.68809939,12.1265885 5.37281332,12.1948603 5.08641602,12.3177496 C4.65756719,12.5023363 4.29346906,12.8017208 4.03596054,13.1891 C3.86511832,13.4449928 3.74159392,13.7534802 3.67783939,14.0442675 L1.00164342,14.0442675 L1.00164342,0.968448102 L17.3143355,0.968448102 L17.3143355,14.0442675 Z M11.8538597,15.1214447 C11.7447796,15.3834062 11.5614854,15.6074388 11.3318695,15.7652225 C11.1012574,15.9230062 10.826814,16.014541 10.5269685,16.014541 C10.3267395,16.014541 10.1384644,15.9735779 9.96662598,15.8997432 C9.70861937,15.7894969 9.48796893,15.6033931 9.33256727,15.3697518 C9.1771656,15.1361105 9.08701271,14.8569547 9.08701271,14.5525131 C9.08701271,14.3497206 9.12735738,14.1585595 9.20007739,13.9840872 C9.30865932,13.7221257 9.49195359,13.4980931 9.72206759,13.3403094 C9.9521816,13.1825257 10.227123,13.0909909 10.5269685,13.0909909 C10.7271976,13.0909909 10.9149746,13.131954 11.0873111,13.2052829 C11.3448196,13.316035 11.5659681,13.5021388 11.7208717,13.7357801 C11.8762734,13.9699271 11.9664262,14.2480714 11.9664262,14.5525131 C11.9664262,14.7558113 11.9265797,14.9469724 11.8538597,15.1214447 L11.8538597,15.1214447 Z M7.34372481,15.1214447 C7.2346448,15.3834062 7.05184861,15.6074388 6.8217346,15.7652225 C6.59112252,15.9230062 6.3166792,16.014541 6.01683368,16.014541 C5.81660461,16.014541 5.62832951,15.9735779 5.45649114,15.8997432 C5.19898261,15.7894969 4.97783409,15.6033931 4.82243242,15.3697518 C4.6799809,15.1548221 4.59231842,14.9019636 4.5788702,14.6258421 C4.58235677,14.6025791 4.58484718,14.5788104 4.58484718,14.5540302 C4.58484718,14.5292501 4.58235677,14.5049757 4.5788702,14.4807013 C4.5873376,14.3047118 4.62568993,14.1378251 4.68994254,13.9840872 C4.79902256,13.7221257 4.98181874,13.4980931 5.21193275,13.3403094 C5.44254483,13.1825257 5.71698816,13.0909909 6.01683368,13.0909909 C6.21706274,13.0909909 6.40533784,13.131954 6.57717622,13.2052829 C6.83518283,13.316035 7.05583327,13.5021388 7.21123493,13.7357801 C7.3666366,13.9699271 7.45678948,14.2480714 7.45678948,14.5525131 C7.45678948,14.7558113 7.41644482,14.9469724 7.34372481,15.1214447 L7.34372481,15.1214447 Z M24.6585583,4.55448752 C24.5728882,4.39468094 24.4090191,4.30972048 24.2302076,4.30972048 L18.268163,4.30972048 L18.268163,0.484476909 C18.268163,0.354001917 18.2218413,0.228078378 18.1306923,0.13603788 C18.0594665,0.063214628 17.9732983,0.0166886618 17.8741799,0 L3.14787987,0 L3.14837795,0 L0.486128284,0 C0.357623061,0 0.232604414,0.0470316833 0.141953444,0.139577899 C0.0513024726,0.231618397 0,0.354001917 0,0.484476909 L0,14.5540302 C0,14.6845052 0.0513024726,14.8180145 0.141953444,14.910055 C0.232604414,15.0026012 0.357623061,15.0612644 0.486128284,15.0612644 L3.67783939,15.0612644 C3.70971666,15.2064052 3.75603831,15.3606489 3.81580818,15.5032611 C3.99711012,15.9391892 4.29944605,16.3053283 4.68047898,16.566784 C5.06151191,16.8282397 5.52373224,16.9804605 6.01683368,16.9799576 C6.34556797,16.9804605 6.66085404,16.9111773 6.94675325,16.7887938 C7.37659824,16.6042071 7.74019829,16.2967311 7.99770682,15.9098576 C8.11126957,15.7399367 8.20341479,15.5533271 8.27165206,15.3560974 C8.28858685,15.4036348 8.30601973,15.4511722 8.32544494,15.4971925 C8.50724497,15.9331206 8.8095809,16.3027997 9.19061382,16.5642554 C9.57114867,16.8257111 10.0338671,16.9789434 10.5269685,16.9789434 C10.8552047,16.9789434 11.1709889,16.9106716 11.4568881,16.7877823 C11.886235,16.6031956 12.2503331,16.302294 12.5078417,15.9154205 C12.6781858,15.6600334 12.8012121,15.351546 12.8654647,15.0612644 L20.5229814,15.0612644 C20.5548586,15.2064052 20.6011803,15.3606489 20.6604521,15.5032611 C20.8422521,15.9391892 21.144588,16.3053283 21.5256209,16.566784 C21.9061558,16.8282397 22.3688742,16.9804605 22.8619756,16.9799576 C23.1907099,16.9804605 23.505996,16.9111773 23.7918952,16.7887938 C24.2212421,16.6042071 24.5853403,16.3027997 24.8428488,15.9159262 C25.0126948,15.6600334 25.1362192,15.351546 25.2004718,15.0612644 L27.6804234,15.0612644 C27.8089286,15.0612644 27.9454032,15.0026012 28.0360541,14.910055 C28.1267051,14.8180145 28.1894635,14.6845052 28.1894635,14.5540302 L28.1894635,11.1950578 C28.1894635,11.1111087 28.1585824,11.0377798 28.1192339,10.9639451 L24.6585583,4.55448752 Z" id="Fill-3"></path>
                        </g>
                    </g>
                </g>
            </g>
        </g>
    </g>
</svg>