<?xml version="1.0" encoding="utf-8"?>
<svg width="46px" height="45px" viewBox="0 0 46 45" version="1.1" xmlns:xlink="http://www.w3.org/1999/xlink" xmlns="http://www.w3.org/2000/svg">
  <g id="Group">
    <path d="M22.5006 44.47C34.9273 44.47 45.0011 34.5151 45.0011 22.235C45.0011 9.95495 34.9273 0 22.5006 0C10.0738 0 0 9.95495 0 22.235C0 34.5151 10.0738 44.47 22.5006 44.47L22.5006 44.47Z" id="Oval" fill="#DF1995" fill-rule="evenodd" stroke="none" />
    <path d="M0.334368 0.25305C0.111456 0.477949 0 0.70295 0 0.927851C0 1.15285 0.111456 1.49025 0.334368 1.60275L8.24774 9.36322L0.334368 17.1237C0 17.4611 0 18.136 0.334368 18.4734C0.780191 18.8108 1.33747 18.8108 1.7833 18.4734L10.3654 10.038C10.5883 9.92558 10.6998 9.58816 10.6998 9.36322C10.6998 9.13828 10.5883 8.80086 10.3654 8.68835L1.7833 0.25305C1.33747 -0.0843506 0.780191 -0.0843506 0.334368 0.25305L0.334368 0.25305Z" transform="translate(18.637756 12.706512)" id="Path" fill="#FFFFFF" fill-rule="evenodd" stroke="none" />
  </g>
</svg>