<?xml version="1.0" encoding="UTF-8"?>
<svg width="64px" height="64px" viewBox="0 0 64 64" version="1.1" xmlns="http://www.w3.org/2000/svg" xmlns:xlink="http://www.w3.org/1999/xlink">
    <title>Ico transporte y entrega</title>
    <defs>
        <polygon id="path-1" points="0 0 46.5330398 0 46.5330398 25 0 25"></polygon>
    </defs>
    <g id="Page-1" stroke="none" stroke-width="1" fill="none" fill-rule="evenodd">
        <g id="Ico-transporte-y-entrega">
            <rect id="Rectangle" fill="#FFFFFF" opacity="0" x="0" y="0" width="64" height="64"></rect>
            <g transform="translate(0.000000, 31.000000)">
                <g id="Group-3" transform="translate(17.466960, 0.000000)">
                    <mask id="mask-2" fill="white">
                        <use xlink:href="#path-1"></use>
                    </mask>
                    <g id="Clip-2"></g>
                    <path d="M11.9220472,20.8541338 C11.9220472,22.1904539 10.8390332,23.2777641 9.50898137,23.2777641 C8.17794137,23.2777641 7.09492739,22.1904539 7.09492739,20.8541338 C7.09492739,19.5178136 8.17794137,18.4314955 9.50898137,18.4314955 C10.8390332,18.4314955 11.9220472,19.5178136 11.9220472,20.8541338 L11.9220472,20.8541338 Z M24.030855,1.70318812 L24.030855,19.9305153 L13.5327341,19.9305153 C13.0989356,18.0674053 11.4200663,16.7231486 9.50898137,16.7231486 C7.59789647,16.7231486 5.91803901,18.0674053 5.48424053,19.9305153 L1.742111,19.9305153 L1.742111,1.70318812 L24.030855,1.70318812 Z M44.8363837,14.8273002 L44.8363837,17.5058929 C44.1318318,16.9880317 43.2948675,16.715212 42.4015786,16.715212 C40.4914818,16.715212 38.8116244,18.0624449 38.3768377,19.9305153 L29.3164771,19.9305153 L29.3164771,4.53059151 L38.5596457,4.53059151 L44.8363837,14.8273002 Z M40.0013587,20.5961952 C40.1317947,19.3610664 41.1614485,18.4314955 42.4015786,18.4314955 C43.7326186,18.4314955 44.8156326,19.5178136 44.8156326,20.8541338 C44.8156326,22.1904539 43.7326186,23.2777641 42.4015786,23.2777641 C41.1209343,23.2777641 40.0655886,22.2767641 39.9924653,20.996992 C40.0112402,20.9225867 40.0211217,20.8491734 40.0211217,20.7757601 C40.0211217,20.7162358 40.0151928,20.6567116 40.0013587,20.5961952 L40.0013587,20.5961952 Z M46.5330398,14.588211 C46.5330398,14.4304717 46.4895611,14.2776927 46.4085327,14.142771 L39.7592616,3.23494631 C39.6060981,2.98296018 39.3284276,2.82720498 39.0349466,2.82720498 L28.467655,2.82720498 C28.0002594,2.82720498 27.6198211,3.20915245 27.6198211,3.67939428 L27.6198211,19.9305153 L25.772966,19.9305153 L25.772966,0.842070175 C25.772966,0.377780776 25.3796818,-0.000198414273 24.8954875,-0.000198414273 L0.866608819,-0.000198414273 C0.380438307,-0.000198414273 0,0.369844205 0,0.842070175 L0,20.7757601 C0,21.2489782 0.388343518,21.6339019 0.866608819,21.6339019 L5.45163153,21.6339019 C5.82218832,23.5882824 7.5158799,24.9980159 9.50898137,24.9980159 C11.5010947,24.9980159 13.1947863,23.5882824 13.5663312,21.6339019 L38.3442287,21.6339019 C38.7157737,23.5892745 40.4094653,25 42.4015786,25 C44.6792677,25 46.5330398,23.1398662 46.5330398,20.8531417 C46.5330398,20.815443 46.5320516,20.7777443 46.5320516,20.7400456 L46.5330398,14.588211 Z" id="Fill-1" fill="#009A44" mask="url(#mask-2)"></path>
                </g>
                <path d="M14.2945988,5.33555822 L0.848822093,5.33555822 C0.380438307,5.33555822 0,5.71750569 0,6.18774752 C0,6.65699728 0.380438307,7.03894475 0.848822093,7.03894475 L14.2945988,7.03894475 C14.7629826,7.03894475 15.1424328,6.65699728 15.1424328,6.18774752 C15.1424328,5.71750569 14.7629826,5.33555822 14.2945988,5.33555822" id="Fill-4" fill="#DF1995"></path>
                <path d="M14.2945988,10.717347 L3.89232855,10.717347 C3.42394476,10.717347 3.04350646,11.0992944 3.04350646,11.5695363 C3.04350646,12.038786 3.42394476,12.4207335 3.89232855,12.4207335 L14.2945988,12.4207335 C14.7629826,12.4207335 15.1424328,12.038786 15.1424328,11.5695363 C15.1424328,11.0992944 14.7629826,10.717347 14.2945988,10.717347" id="Fill-6" fill="#DF1995"></path>
                <path d="M14.2945988,16.0535996 L7.70758128,16.0535996 C7.2391975,16.0535996 6.85974734,16.4355471 6.85974734,16.9047969 C6.85974734,17.3750387 7.2391975,17.7569862 7.70758128,17.7569862 L14.2945988,17.7569862 C14.7629826,17.7569862 15.1424328,17.3750387 15.1424328,16.9047969 C15.1424328,16.4355471 14.7629826,16.0535996 14.2945988,16.0535996" id="Fill-8" fill="#DF1995"></path>
            </g>
        </g>
    </g>
</svg>