<?xml version="1.0" encoding="utf-8"?>
<svg width="6px" height="9px" viewBox="0 0 6 9" version="1.1" xmlns:xlink="http://www.w3.org/1999/xlink" xmlns="http://www.w3.org/2000/svg">
  <path d="M0.219696 7.21973L0.750031 6.68945L3.18942 4.25L0.750031 1.81055L0.219696 1.28027C0.149353 1.20996 0.0951538 1.12891 0.0570984 1.03699C0.019043 0.945068 0 0.849365 0 0.749878C0 0.650513 0.019043 0.554932 0.0570984 0.463013C0.0951538 0.371094 0.149353 0.290039 0.219696 0.219727C0.366119 0.0732422 0.542908 0 0.750031 0C0.957123 0 1.13391 0.0732422 1.28036 0.219727L5.3107 4.25L1.28036 8.28027C1.13391 8.42664 0.957123 8.49988 0.750031 8.49988C0.542908 8.49988 0.366119 8.42664 0.219696 8.28027C0.149353 8.20996 0.0951538 8.12878 0.0570984 8.03687C0.019043 7.94495 0 7.84937 0 7.74988C0 7.65039 0.019043 7.55481 0.0570984 7.46289C0.0951538 7.37097 0.149353 7.28992 0.219696 7.21973L0.219696 7.21973Z" id="Vector" fill="#009A44" fill-rule="evenodd" stroke="none" />
</svg>