<?xml version="1.0" encoding="utf-8"?>
<svg width="33px" height="29px" viewBox="0 0 33 29" version="1.1" xmlns:xlink="http://www.w3.org/1999/xlink" xmlns="http://www.w3.org/2000/svg">
  <g id="headphones-(1)" transform="translate(0.15000153 0.14990234)">
    <path d="M28.1326 11.387C27.9954 8.40438 26.7645 5.61975 24.6068 3.50244C22.3188 1.24401 19.262 0 16 0C9.48411 0 4.16452 5.06077 3.86849 11.3869C1.67285 11.7783 0 13.66 0 15.9266L0 19.2568C0 21.8061 2.1125 23.88 4.70937 23.88L4.8474 23.88L4.8474 25.0938C4.8474 26.8261 6.28282 28.2353 8.0474 28.2353L15.4193 28.2353C16.0083 28.2353 16.4859 27.7664 16.4859 27.1881C16.4859 26.6099 16.0083 26.141 15.4193 26.141L8.0474 26.141C7.45938 26.141 6.98073 25.6711 6.98073 25.0938L6.98073 23.88L8.60938 23.88C9.19844 23.88 9.67605 23.4111 9.67605 22.8328L9.67605 12.3506C9.67605 11.7723 9.19845 11.3034 8.60938 11.3034L6.00619 11.3034C6.34173 6.17164 10.6893 2.0943 16 2.0943C18.6901 2.0943 21.2094 3.11896 23.0963 4.98112C24.8329 6.68537 25.8414 8.91204 25.9952 11.3034L23.3906 11.3034C22.8016 11.3034 22.3239 11.7723 22.3239 12.3506L22.3239 22.8328C22.3239 23.4111 22.8016 23.88 23.3906 23.88L27.2906 23.88C29.8875 23.88 32 21.8061 32 19.2568L32 15.9266C32 13.6603 30.3277 11.7789 28.1326 11.387ZM7.54271 21.7857L4.70937 21.7857C3.28906 21.7857 2.13333 20.6511 2.13333 19.2568L2.13333 15.9266C2.13333 14.5323 3.28906 13.3977 4.70937 13.3977L7.5427 13.3977L7.5427 21.7857L7.54271 21.7857ZM29.8667 19.2568C29.8667 20.6511 28.7109 21.7857 27.2906 21.7857L24.4573 21.7857L24.4573 13.3977L27.2906 13.3977C28.7109 13.3977 29.8667 14.5323 29.8667 15.9266L29.8667 19.2568Z" id="Shape" fill="#FFFFFF" stroke="#56C271" stroke-width="0.3" />
  </g>
</svg>