<?xml version="1.0" encoding="UTF-8"?>
<svg width="43px" height="30px" viewBox="0 0 43 30" version="1.1" xmlns="http://www.w3.org/2000/svg" xmlns:xlink="http://www.w3.org/1999/xlink">
    <title>Group 16</title>
    <defs>
        <polygon id="path-1" points="0 0 27 0 27 21 0 21"></polygon>
    </defs>
    <g id="Plantilla-1---Menus-desplegados" stroke="none" stroke-width="1" fill="none" fill-rule="evenodd">
        <g id="Menu-Soluciones" transform="translate(-608.000000, -126.000000)">
            <g id="Group-13" transform="translate(86.000000, 95.000000)">
                <g id="Group-16" transform="translate(522.000000, 31.000000)">
                    <rect id="Rectangle" fill="#FFFFFF" opacity="0" x="0" y="0" width="43" height="30"></rect>
                    <g id="Group-6" transform="translate(0.000000, 8.893769)">
                        <g id="Group-3">
                            <mask id="mask-2" fill="white">
                                <use xlink:href="#path-1"></use>
                            </mask>
                            <g id="Clip-2"></g>
                            <path d="M24.6530529,18.6477109 C23.7110598,19.591979 22.4587849,20.1120714 21.1266171,20.1120714 C19.7944493,20.1120714 18.5421744,19.591979 17.5997168,18.6477109 C16.6581881,17.7034429 16.1393487,16.4476781 16.1393487,15.1127587 C16.1393487,13.92963 16.5462452,12.8098249 17.29408,11.9130496 C17.3010474,11.9060654 17.3080148,11.89815 17.3145177,11.8902345 C17.3196271,11.8841815 17.324272,11.8776629 17.328917,11.8711443 C17.4148483,11.7705713 17.5054246,11.6723265 17.5997168,11.5773409 C18.5421744,10.6330729 19.7944493,10.1129805 21.1266171,10.1129805 C22.4587849,10.1129805 23.7110598,10.6330729 24.6530529,11.5773409 C25.595046,12.521609 26.1138855,13.7773738 26.1138855,15.1127587 C26.1138855,16.4476781 25.595046,17.7034429 24.6530529,18.6477109 L24.6530529,18.6477109 Z M16.9731148,10.9492257 C16.9587155,10.9641254 16.9438517,10.9794907 16.9294524,10.9943904 L13.7179433,8.32687976 L20.7847498,1.48978307 L20.7847498,9.23529542 C20.1028731,9.2739415 19.4609428,9.42526651 18.8427018,9.68740799 C18.1431744,9.98447062 17.512392,10.4086463 16.9731148,10.9492257 L16.9731148,10.9492257 Z M12.4526626,8.31198006 C12.0155741,8.73475886 11.4405309,8.96896341 10.8329732,8.96896341 C10.224951,8.96896341 9.64990789,8.73429324 9.21281936,8.31151445 L1.53938419,0.884017418 L20.1260978,0.884017418 L12.4526626,8.31198006 Z M0.886306113,1.48978307 L7.95125459,8.32687976 L0.886306113,14.189909 L0.886306113,1.48978307 Z M15.2679586,14.6927736 L1.67269387,14.6927736 L8.59179134,8.94940756 L8.59736527,8.9535981 C9.20027803,9.53747982 9.99409768,9.85875446 10.8329732,9.85875446 C11.6713843,9.85875446 12.4652039,9.53701421 13.0685812,8.95313248 L13.0736906,8.9475451 L16.3585897,11.6737233 C16.1021892,12.0294535 15.8866642,12.4145174 15.7148015,12.8223965 C15.463046,13.4188499 15.313479,14.0423089 15.2679586,14.6927736 L15.2679586,14.6927736 Z M26.5384327,12.8205341 C26.2425502,12.1193173 25.818932,11.4898052 25.2796549,10.9492257 C24.7403777,10.4086463 24.1128468,9.98447062 23.4133194,9.68740799 C22.8545335,9.45087536 22.2655555,9.3042065 21.6668232,9.24926388 L21.6668232,0.44354524 C21.6668232,0.441682778 21.6663587,0.439820317 21.6663587,0.43749224 C21.6658942,0.433301701 21.6658942,0.429576778 21.6658942,0.425386239 L21.6649652,0.4151427 C21.6649652,0.410952161 21.6645007,0.407692853 21.6640362,0.403502315 C21.6635718,0.400243007 21.6635718,0.396052468 21.6631073,0.392327545 C21.6626428,0.389068237 21.6621783,0.385808929 21.6617138,0.382549621 C21.6612493,0.378359083 21.6607848,0.374634159 21.6598558,0.370443621 C21.6593913,0.367649928 21.6589268,0.36439062 21.6584623,0.361596928 C21.6575333,0.357406389 21.6566044,0.352750235 21.6556754,0.349025312 C21.6552109,0.346231619 21.6542819,0.342972311 21.6538174,0.340178619 C21.6528884,0.33598808 21.6519594,0.332263157 21.6510304,0.328072618 C21.6501014,0.32481331 21.6491725,0.322019618 21.6482435,0.319225925 C21.6473145,0.315035387 21.645921,0.311310463 21.6445275,0.307119925 C21.6435985,0.304326232 21.6426695,0.301066924 21.6417406,0.298273232 C21.6403471,0.294548309 21.6389536,0.290823385 21.6375601,0.287098462 L21.6338442,0.276854923 C21.6324507,0.274061231 21.6310572,0.270801923 21.6296637,0.267542615 C21.6282702,0.263817692 21.6264123,0.260092768 21.6245543,0.256367845 C21.6236253,0.254039768 21.6222318,0.25078046 21.6208383,0.247986768 C21.6189804,0.244261844 21.6171224,0.240536921 21.6147999,0.236811998 L21.611084,0.229362151 C21.6087615,0.225637228 21.606439,0.221446689 21.6045811,0.217721766 C21.6031876,0.215393689 21.6017941,0.213065612 21.5999361,0.210271919 C21.5976137,0.207012612 21.5952912,0.203287688 21.5929687,0.199562765 C21.5915752,0.197234688 21.5897173,0.194440995 21.5878593,0.192112918 C21.5855368,0.188853611 21.5832144,0.185594303 21.5808919,0.181869379 C21.5790339,0.179075687 21.5771759,0.17674761 21.575318,0.174419533 C21.5729955,0.171160225 21.5702085,0.168366532 21.5678861,0.165107225 L21.5609187,0.156726147 C21.5585962,0.153932455 21.5562737,0.151138762 21.5539513,0.148810685 C21.5516288,0.145551377 21.5488418,0.142757685 21.5460549,0.139498377 C21.5446614,0.138567146 21.5432679,0.136704685 21.5418744,0.135307838 L21.5390875,0.132514146 C21.5363005,0.129720453 21.5335135,0.126926761 21.5307266,0.124133068 C21.5279396,0.121804991 21.5256171,0.119476914 21.5228302,0.116683222 C21.5205077,0.114355145 21.5177207,0.112027068 21.5153983,0.110164606 C21.5121468,0.107370914 21.5093599,0.104577221 21.5061084,0.101783529 C21.5042504,0.100386683 21.501928,0.0989898363 21.4996055,0.0971273746 C21.496354,0.0938680668 21.4926381,0.0910743743 21.4889221,0.0882806818 L21.4842772,0.085021374 C21.4796323,0.0817620661 21.4754518,0.0785027582 21.4708069,0.0757090658 L21.4684844,0.0738466041 C21.463375,0.0705872962 21.4582656,0.0673279884 21.4526916,0.0636030651 L21.4517626,0.0631374497 C21.4461887,0.0598781418 21.4401503,0.0561532185 21.4341119,0.0528939106 L21.4327184,0.0524282952 C21.4271445,0.0491689874 21.4211061,0.0463752949 21.4155321,0.0435816024 C21.4136742,0.0426503716 21.4113517,0.0417191408 21.4099582,0.04078791 L21.3960234,0.0347349096 C21.391843,0.032872448 21.388127,0.0314756018 21.3839466,0.0300787555 C21.3816241,0.0291475247 21.3788371,0.0277506785 21.3765147,0.0268194476 C21.3709408,0.024956986 21.3653668,0.0230945244 21.3602574,0.0212320627 L21.356077,0.0198352165 C21.350503,0.0179727548 21.3444646,0.0165759086 21.3384262,0.014713447 L21.3356392,0.0137822162 C21.3300653,0.0128509853 21.3244914,0.0114541391 21.318453,0.0100572929 L21.314737,0.00912606205 C21.3096276,0.00819483123 21.3045182,0.0072636004 21.2994087,0.00633236958 C21.2970863,0.00586675417 21.2952283,0.00540113876 21.2933703,0.00493552335 C21.2887254,0.00446990794 21.2845449,0.00353867712 21.2799,0.00353867712 C21.277113,0.00307306171 21.2743261,0.0026074463 21.2710746,0.00214183089 C21.2673587,0.00167621548 21.2636427,0.00167621548 21.2599268,0.00121060007 L21.2487789,0.000279369247 C21.2455275,0.000279369247 21.242276,0.000279369247 21.2385601,-0.000186246164 C21.2348441,-0.000186246164 21.2306637,-0.000186246164 21.2269477,-0.000186246164 L21.2227673,0.000279369247 L0.44225018,0.000279369247 L0.438534231,-0.000186246164 C0.434818281,-0.000186246164 0.431102332,-0.000186246164 0.426921889,0.000279369247 C0.42320594,0.000279369247 0.419954485,0.000279369247 0.416238535,0.000279369247 L0.406019675,0.00121060007 C0.402303726,0.00167621548 0.398123283,0.00167621548 0.39394284,0.00214183089 C0.391620372,0.0026074463 0.38883341,0.00307306171 0.386046448,0.00353867712 C0.381401511,0.00353867712 0.376756575,0.00446990794 0.372111638,0.00493552335 C0.370253664,0.00540113876 0.368395689,0.00586675417 0.366537714,0.00586675417 C0.361428284,0.00679798499 0.35585436,0.00819483123 0.35074493,0.00912606205 L0.347493474,0.0100572929 C0.341455057,0.0109885237 0.335416639,0.0128509853 0.329842716,0.0137822162 L0.327984741,0.0142478316 C0.321946323,0.0161102932 0.315443412,0.0179727548 0.308940501,0.0203008319 L0.306618033,0.0207664473 C0.301044109,0.022628909 0.295005692,0.0244913706 0.288967274,0.0268194476 C0.286644806,0.0277506785 0.284786831,0.0286819093 0.282928857,0.0296131401 C0.27828392,0.0310099863 0.273638983,0.032872448 0.269458541,0.0347349096 C0.265278098,0.0365973713 0.261097655,0.0384598329 0.256917212,0.0403222946 C0.254594744,0.0417191408 0.252272275,0.0426503716 0.249949807,0.0435816024 C0.244375883,0.0459096795 0.239266453,0.0491689874 0.233692529,0.0519626798 L0.230905567,0.0528939106 C0.225796137,0.0561532185 0.21975772,0.0594125264 0.214648289,0.0626718343 L0.212790315,0.0640686805 C0.207680885,0.066862373 0.202571454,0.0705872962 0.197462024,0.0733809887 L0.194675062,0.0757090658 C0.190030126,0.0785027582 0.185849683,0.0817620661 0.181204746,0.085021374 L0.17655981,0.0882806818 C0.172843861,0.0910743743 0.169592405,0.0938680668 0.165876456,0.0971273746 C0.163553987,0.0989898363 0.161231519,0.100386683 0.159373545,0.102249144 C0.156122089,0.104577221 0.153335127,0.107370914 0.150548165,0.110164606 C0.147761203,0.112027068 0.144974241,0.114355145 0.142651773,0.116683222 C0.139864811,0.119476914 0.137542343,0.121804991 0.134755381,0.124133068 C0.131968419,0.126926761 0.129181457,0.129720453 0.126394495,0.132514146 L0.123607533,0.135307838 C0.122214052,0.136704685 0.120820571,0.138567146 0.11942709,0.139498377 C0.116640128,0.142757685 0.113853166,0.145551377 0.111530698,0.148810685 C0.10920823,0.151138762 0.106885762,0.153932455 0.104563293,0.156726147 C0.102240825,0.15951984 0.0999183568,0.162313532 0.0975958885,0.165107225 C0.0952734203,0.168366532 0.092950952,0.171160225 0.0906284837,0.174419533 C0.0883060155,0.17674761 0.0864480408,0.179075687 0.0845900662,0.181869379 C0.082267598,0.185594303 0.0799451297,0.188853611 0.0771581678,0.192112918 C0.0757646868,0.194440995 0.0739067122,0.197234688 0.0725132312,0.199562765 C0.070190763,0.203287688 0.0678682947,0.207012612 0.0655458264,0.210271919 C0.0636878518,0.213065612 0.0627588645,0.215393689 0.0613653835,0.217721766 L0.0543979787,0.229362151 C0.0530044977,0.231690228 0.0516110168,0.234483921 0.0506820295,0.236811998 C0.0483595612,0.240536921 0.0465015866,0.244261844 0.044643612,0.247986768 C0.043250131,0.25078046 0.0418566501,0.254039768 0.0404631691,0.256367845 L0.0358182325,0.267542615 L0.0316377897,0.276854923 C0.0302443087,0.280579846 0.0288508277,0.283839154 0.0279218404,0.287098462 C0.0265283595,0.290823385 0.0251348785,0.294548309 0.0242058912,0.298273232 C0.0228124102,0.301066924 0.0218834229,0.304326232 0.0209544356,0.307119925 C0.0195609547,0.311310463 0.0181674737,0.315035387 0.0172384864,0.319225925 C0.0163094991,0.322019618 0.0153805118,0.32481331 0.0149160181,0.328072618 C0.0135225371,0.332263157 0.0125935498,0.33598808 0.0116645625,0.340178619 C0.0107355752,0.342972311 0.0102710816,0.346231619 0.00980658792,0.349025312 C0.00887760061,0.352750235 0.0079486133,0.357406389 0.00701962599,0.361596928 C0.00655513234,0.36439062 0.00609063868,0.367649928 0.00562614503,0.370443621 C0.00516165137,0.374634159 0.00423266407,0.378359083 0.00376817041,0.382549621 C0.00330367676,0.385808929 0.0028391831,0.389068237 0.00237468945,0.392327545 C0.0019101958,0.396052468 0.00144570214,0.400243007 0.00144570214,0.403502315 C0.000981208487,0.407692853 0.000516714833,0.410952161 0.000516714833,0.4151427 C-9.22383304e-13,0.418402008 -9.22383304e-13,0.421661316 -9.22383304e-13,0.425386239 C-0.000412272475,0.429576778 0.00237468945,0.433301701 0.00237468945,0.43749224 C0.00237468945,0.439820317 0.00469715772,0.441682778 0.00469715772,0.44354524 L0.00469715772,15.1341771 L0.00469715772,15.1341771 C0.00469715772,15.1490768 0.0028391831,15.1639764 0.00423266407,15.1788761 C0.00469715772,15.1807386 0.00376817041,15.1826011 0.00376817041,15.1849291 C0.00423266407,15.1900509 0.00423266407,15.1951727 0.00516165137,15.2007601 C0.00562614503,15.2035538 0.00562614503,15.2058818 0.00609063868,15.2086755 C0.00701962599,15.2133317 0.00748411965,15.2175222 0.00841310695,15.2221784 C0.00887760061,15.2249721 0.00980658792,15.2282314 0.0102710816,15.2314907 C0.0112000689,15.2352156 0.0121290562,15.2394061 0.0130580435,15.2431311 C0.0139870308,15.2463904 0.0149160181,15.2496497 0.0153805118,15.252909 C0.0167739927,15.2566339 0.01770298,15.2603588 0.0186319673,15.2640838 C0.0195609547,15.2673431 0.0209544356,15.2706024 0.0218834229,15.2738617 C0.0232769039,15.2775866 0.0246703848,15.2813115 0.0255993722,15.2845708 C0.0265283595,15.2878301 0.0279218404,15.2910895 0.0293153214,15.2943488 C0.0307088024,15.2980737 0.0321022833,15.301333 0.0334957643,15.3050579 L0.0376762072,15.3143702 C0.0390696881,15.3180951 0.0409276627,15.3213545 0.0423211437,15.3250794 L0.0469660802,15.3343917 C0.0488240549,15.337651 0.0502175358,15.3409103 0.0520755104,15.3441696 C0.0539334851,15.3478945 0.0557914597,15.3511538 0.0581139279,15.3544131 C0.0595074089,15.3576725 0.0613653835,15.3600005 0.0627588645,15.3632598 C0.0650813328,15.3674504 0.0678682947,15.3711753 0.0706552566,15.3753658 C0.0720487376,15.3772283 0.0734422185,15.3790908 0.0743712058,15.3814188 C0.0785516487,15.3874718 0.0827320916,15.3930592 0.0864480408,15.3986466 L0.0873770282,15.3991122 C0.091557471,15.4056308 0.0962024076,15.4112182 0.101311838,15.4172712 L0.101311838,15.4172712 L0.102705319,15.4191337 C0.107350255,15.4242555 0.111995192,15.4293772 0.116175635,15.434499 C0.118498103,15.4368271 0.120820571,15.4396208 0.12314304,15.4419488 C0.126394495,15.4452082 0.129181457,15.4480018 0.131968419,15.4507955 C0.135219875,15.4540548 0.138006836,15.4563829 0.141258292,15.4596422 C0.14358076,15.4619703 0.145903229,15.4638328 0.148225697,15.4661608 C0.151941646,15.4694202 0.155193102,15.4722138 0.158909051,15.4754732 C0.160767026,15.47687 0.162625,15.4782668 0.164947468,15.4801293 C0.168663418,15.4833886 0.172843861,15.4866479 0.177024303,15.4899072 L0.179811265,15.4917697 C0.194675062,15.5024788 0.209538859,15.5122568 0.22486715,15.5211035 C0.227654112,15.5225003 0.22997658,15.5238972 0.232763542,15.525294 L0.242982402,15.5308814 C0.246698352,15.5327438 0.249949807,15.5341407 0.253665756,15.5360032 L0.262491136,15.5401937 C0.267136072,15.5420562 0.271316515,15.543453 0.275961452,15.5453155 C0.27828392,15.5467123 0.280606388,15.5476435 0.282928857,15.5485748 C0.288038287,15.5504372 0.293147717,15.5522997 0.298257147,15.5541622 C0.300579615,15.5546278 0.30243759,15.555559 0.304295565,15.5560246 C0.309869488,15.5578871 0.315907906,15.5597495 0.321946323,15.561612 L0.326126766,15.5630089 C0.332629678,15.5644057 0.339132589,15.5658025 0.3456355,15.567665 L0.348886955,15.5681306 C0.355389867,15.5695275 0.362357271,15.5709243 0.369324676,15.5723212 L0.372111638,15.5727868 C0.379079043,15.573718 0.385581954,15.5746492 0.393013853,15.5755805 L0.395336321,15.5755805 C0.402303726,15.5765117 0.408806637,15.5769773 0.415309548,15.5774429 L0.419489991,15.5774429 C0.424599421,15.5779085 0.430637839,15.5774429 0.436211762,15.5774429 C0.438534231,15.5774429 0.440856699,15.5769773 0.442714674,15.5769773 L0.443179167,15.5769773 L15.2712101,15.5769773 C15.3199819,16.2106799 15.4686199,16.8201705 15.7148015,17.4035866 C16.010684,18.1048034 16.4343022,18.734781 16.9731148,19.2753605 C17.512392,19.81594 18.1403874,20.2405813 18.8399148,20.5371783 C19.5645249,20.8444845 20.3337264,21 21.1266171,21 C21.9195078,21 22.6887093,20.8444845 23.4128549,20.5371783 C24.1123823,20.2405813 24.7403777,19.8164056 25.2796549,19.2758261 C25.818932,18.7352466 26.2425502,18.105269 26.5384327,17.4045178 C26.844534,16.6781578 27.0001393,15.9070986 27.0001393,15.1127587 C27.0001393,14.3179532 26.844534,13.5468941 26.5384327,12.8205341 L26.5384327,12.8205341 Z" id="Fill-1" fill="#009A44" mask="url(#mask-2)"></path>
                        </g>
                        <path d="M22.6306475,17.3434291 L21.4420083,16.1519192 L20.3987555,17.198157 L19.0015586,13.0658203 L23.1234753,14.4668571 L22.0797581,15.5126293 L23.2683973,16.7036735 L22.6306475,17.3434291 Z M23.3334264,15.5126293 L23.7500773,15.0949722 C23.9665313,14.8779955 24.0557141,14.5637051 23.9865045,14.26478 C23.9168305,13.9658549 23.698054,13.7242005 23.4077454,13.62549 L19.2858287,12.2244532 C19.1924655,12.1927914 19.0967798,12.1774261 19.0015586,12.1774261 C18.7697763,12.1774261 18.5435679,12.2682211 18.3744922,12.4377051 C18.1362069,12.6770314 18.0535271,13.0308991 18.1617541,13.3512425 L19.5594155,17.4831137 C19.6578882,17.7741233 19.8989604,17.9934282 20.1971653,18.0628049 C20.2640524,18.0786358 20.3318684,18.0860856 20.3987555,18.0860856 C20.6310024,18.0860856 20.8572108,17.9943594 21.0253575,17.8262722 L21.4420083,17.4081496 L22.0040456,17.9715442 C22.1703343,18.1382346 22.3956138,18.2318233 22.6306475,18.2318233 C22.8656813,18.2318233 23.0909608,18.1382346 23.2572495,17.9715442 L23.8949993,17.3322543 C24.061288,17.165564 24.1546512,16.9397405 24.1546512,16.7036735 C24.1546512,16.4685377 24.061288,16.2422486 23.8949993,16.0755583 L23.3334264,15.5126293 Z" id="Fill-4" fill="#DF1995"></path>
                    </g>
                </g>
            </g>
        </g>
    </g>
</svg>