<?xml version="1.0" encoding="UTF-8"?>
<svg width="64px" height="64px" viewBox="0 0 64 64" version="1.1" xmlns="http://www.w3.org/2000/svg" xmlns:xlink="http://www.w3.org/1999/xlink">
    <title>Ico soluciones logistica</title>
    <defs>
        <polygon id="path-1" points="0 0 37.4047068 0 37.4047068 18.8318441 0 18.8318441"></polygon>
        <polygon id="path-3" points="0 0 43.91 0 43.91 26.1578 0 26.1578"></polygon>
    </defs>
    <g id="Page-1" stroke="none" stroke-width="1" fill="none" fill-rule="evenodd">
        <g id="Ico-soluciones-logistica">
            <rect id="Rectangle" fill="#FFFFFF" opacity="0" x="0" y="0" width="64" height="64"></rect>
            <g id="Ico-soluciones/logistica" transform="translate(-0.000000, 15.000000)">
                <g id="Group-3" transform="translate(7.794902, 0.000000)">
                    <mask id="mask-2" fill="white">
                        <use xlink:href="#path-1"></use>
                    </mask>
                    <g id="Clip-2"></g>
                    <path d="M19.066698,3.0779 L22.025698,1.7839 L25.973698,4.3629 L23.014698,5.6569 L19.066698,3.0779 Z M0.405698015,12.1249 L5.69169802,15.2989 L8.94369802,15.2989 L2.65669802,11.5249 L5.73969802,10.1749 L9.99169802,12.7859 C10.224698,12.9289 10.513698,12.9489 10.764698,12.8389 L33.741698,2.7919 C33.771698,2.7789 33.799698,2.7639 33.827698,2.7469 C33.858698,2.7379 33.889698,2.7269 33.919698,2.7139 C34.316698,2.5409 34.778698,2.5799 35.137698,2.8109 C35.355698,2.9519 35.518698,3.1439 35.623698,3.3819 C35.695698,3.5469 35.731698,3.7209 35.731698,3.8989 C35.732698,4.1469 35.660698,4.3899 35.525698,4.5999 C35.385698,4.8179 35.193698,4.9819 34.955698,5.0859 C34.925698,5.0989 34.897698,5.1139 34.869698,5.1309 C34.838698,5.1399 34.808698,5.1499 34.778698,5.1629 L29.099698,7.6469 C28.836698,7.7619 28.651698,7.9999 28.607698,8.2839 L27.512698,15.3169 L24.573698,16.6019 L25.643698,10.5769 C25.697698,10.2719 25.580698,9.9649 25.337698,9.7739 C25.188698,9.6569 25.006698,9.5959 24.823698,9.5959 C24.709698,9.5959 24.593698,9.6199 24.484698,9.6669 L11.610698,15.2989 L15.785698,15.2989 L23.722698,11.8259 L22.652698,17.8489 C22.598698,18.1539 22.715698,18.4609 22.959698,18.6529 C23.201698,18.8439 23.528698,18.8849 23.811698,18.7619 L28.603698,16.6659 C28.862698,16.5529 29.050698,16.3079 29.094698,16.0289 L30.190698,8.9959 L35.448698,6.6969 C35.478698,6.6829 35.506698,6.6679 35.534698,6.6519 C35.565698,6.6429 35.595698,6.6319 35.626698,6.6189 C36.165698,6.3829 36.617698,5.9969 36.933698,5.5039 C37.242698,5.0229 37.4047068,4.4679 37.4047068,3.8989 C37.405698,3.4889 37.321698,3.0899 37.155698,2.7109 C36.920698,2.1719 36.534698,1.7199 36.041698,1.4039 C35.560698,1.0959 35.005698,0.9319 34.436698,0.9319 L34.432698,0.9319 C34.023698,0.9319 33.625698,1.0159 33.248698,1.1819 C33.216698,1.1959 33.187698,1.2109 33.158698,1.2289 C33.130698,1.2379 33.103698,1.2469 33.077698,1.2589 L27.807698,3.5619 L22.561698,0.1369 C22.325698,-0.0191 22.028698,-0.0431 21.769698,0.0699 L16.977698,2.1649 C16.695698,2.2879 16.504698,2.5559 16.479698,2.8619 C16.453698,3.1689 16.597698,3.4639 16.855698,3.6319 L21.182698,6.4579 L10.496698,11.1309 L6.24369802,8.5199 C6.00969802,8.3759 5.72169802,8.3559 5.47069802,8.4659 L0.501698015,10.6389 C0.212698015,10.7649 0.0216980155,11.0369 0.00169801548,11.3509 C-0.0183019845,11.6619 0.139698015,11.9659 0.405698015,12.1249 L0.405698015,12.1249 Z" id="Fill-1" fill="#DF1995" mask="url(#mask-2)"></path>
                </g>
                <g id="Group-6" transform="translate(0.000000, 15.299200)">
                    <mask id="mask-4" fill="white">
                        <use xlink:href="#path-3"></use>
                    </mask>
                    <g id="Clip-5"></g>
                    <path d="M42.181,21.494 L39.28,21.494 C39.229,21.271 39.162,21.06 39.08,20.867 C38.792,20.185 38.316,19.606 37.703,19.193 C37.074,18.767 36.338,18.542 35.576,18.542 C35.062,18.542 34.564,18.643 34.094,18.842 C33.413,19.13 32.834,19.606 32.42,20.22 C32.157,20.608 31.971,21.036 31.867,21.493 L28.576,21.493 L28.576,8.27 L37.188,8.269 L42.181,17.437 L42.181,21.494 Z M37.543,23.179 C37.382,23.561 37.114,23.886 36.769,24.119 C36.177,24.518 35.398,24.591 34.746,24.315 C34.365,24.154 34.039,23.887 33.807,23.542 C33.569,23.189 33.443,22.776 33.443,22.349 C33.443,22.06 33.499,21.781 33.61,21.519 C33.771,21.137 34.039,20.812 34.384,20.579 C34.737,20.341 35.149,20.216 35.577,20.215 C35.865,20.215 36.144,20.271 36.407,20.383 C36.788,20.544 37.114,20.811 37.346,21.156 C37.584,21.509 37.71,21.922 37.71,22.349 C37.71,22.637 37.654,22.916 37.543,23.179 L37.543,23.179 Z M26.846,21.493 L20.15,21.493 C20.101,21.28 20.035,21.075 19.947,20.867 C19.659,20.186 19.182,19.608 18.568,19.193 C17.939,18.767 17.203,18.542 16.439,18.542 C15.925,18.542 15.427,18.643 14.957,18.842 C14.277,19.129 13.698,19.606 13.283,20.22 C13.15,20.417 13.035,20.627 12.941,20.847 C12.652,20.175 12.179,19.603 11.571,19.193 C10.941,18.767 10.205,18.542 9.442,18.542 C8.929,18.542 8.43,18.643 7.96,18.842 C7.28,19.13 6.701,19.606 6.286,20.22 C6.023,20.609 5.836,21.037 5.733,21.493 L1.73,21.493 L1.73,1.689 L26.846,1.689 L26.846,21.493 Z M18.406,23.179 C18.244,23.561 17.977,23.886 17.632,24.119 C17.04,24.518 16.262,24.592 15.609,24.315 C15.227,24.154 14.902,23.887 14.669,23.542 C14.431,23.189 14.306,22.776 14.305,22.349 C14.305,22.06 14.362,21.781 14.473,21.519 C14.634,21.137 14.902,20.812 15.246,20.579 C15.599,20.341 16.012,20.216 16.439,20.215 C16.727,20.215 17.007,20.271 17.27,20.383 C17.651,20.544 17.976,20.811 18.209,21.156 C18.447,21.509 18.573,21.921 18.573,22.349 C18.573,22.638 18.517,22.917 18.406,23.179 L18.406,23.179 Z M11.409,23.179 C11.247,23.561 10.98,23.886 10.635,24.119 C10.042,24.518 9.264,24.591 8.612,24.315 C8.23,24.154 7.905,23.887 7.672,23.542 C7.455,23.22 7.33,22.844 7.31,22.475 C7.316,22.434 7.32,22.393 7.32,22.351 C7.32,22.308 7.316,22.266 7.311,22.244 C7.323,21.993 7.378,21.748 7.475,21.519 C7.637,21.137 7.905,20.812 8.249,20.579 C8.602,20.341 9.014,20.216 9.442,20.215 C9.73,20.215 10.01,20.271 10.273,20.383 C10.655,20.544 10.979,20.811 11.212,21.156 C11.45,21.509 11.576,21.921 11.576,22.349 C11.576,22.638 11.52,22.917 11.409,23.179 L11.409,23.179 Z M38.452,7.005 C38.302,6.731 38.014,6.56 37.699,6.56 L28.576,6.56 L28.576,0.852 C28.576,0.631 28.483,0.411 28.321,0.248 C28.162,0.091 27.94,0 27.71,0 L23.58,0 L19.406,0 L16.739,0 L13.487,0 L0.861,0 C0.632,0 0.41,0.091 0.253,0.248 C0.092,0.409 0,0.629 0,0.852 L0,22.351 C0,22.577 0.095,22.806 0.253,22.964 C0.417,23.128 0.639,23.223 0.861,23.223 L5.733,23.223 C5.78,23.427 5.845,23.625 5.935,23.838 C6.221,24.515 6.698,25.093 7.313,25.509 C7.941,25.933 8.676,26.158 9.44,26.158 C9.442,26.158 9.444,26.158 9.446,26.158 C9.956,26.158 10.453,26.056 10.924,25.857 C11.604,25.57 12.183,25.093 12.598,24.479 C12.732,24.282 12.846,24.072 12.941,23.852 C13.229,24.523 13.702,25.095 14.31,25.505 C14.939,25.931 15.675,26.156 16.439,26.156 C16.952,26.156 17.452,26.055 17.921,25.856 C18.606,25.567 19.185,25.093 19.595,24.486 C19.86,24.095 20.045,23.67 20.148,23.223 L31.867,23.223 C31.914,23.428 31.979,23.625 32.069,23.838 C32.356,24.515 32.832,25.093 33.448,25.509 C34.075,25.933 34.81,26.158 35.574,26.158 C35.577,26.158 35.578,26.158 35.58,26.158 C36.09,26.158 36.588,26.056 37.059,25.857 C37.743,25.568 38.322,25.094 38.733,24.486 C38.996,24.096 39.182,23.671 39.285,23.223 L43.052,23.223 C43.274,23.223 43.494,23.128 43.659,22.964 C43.817,22.807 43.91,22.577 43.91,22.351 L43.91,17.219 C43.91,17.075 43.875,16.936 43.805,16.808 L38.452,7.005 Z" id="Fill-4" fill="#009A44" mask="url(#mask-4)"></path>
                </g>
            </g>
        </g>
    </g>
</svg>