<?xml version="1.0" encoding="UTF-8"?>
<svg width="64px" height="64px" viewBox="0 0 64 64" version="1.1" xmlns="http://www.w3.org/2000/svg" xmlns:xlink="http://www.w3.org/1999/xlink">
    <title>Ico Soluciones e-commerce</title>
    <defs>
        <polygon id="path-1" points="0 0 38.2 0 38.2 38.1999136 0 38.1999136"></polygon>
    </defs>
    <g id="Page-1" stroke="none" stroke-width="1" fill="none" fill-rule="evenodd">
        <g id="Ico-Soluciones-e-commerce">
            <rect id="Rectangle" fill="#FFFFFF" opacity="0" x="0" y="0" width="64" height="64"></rect>
            <g transform="translate(0.000000, 18.000000)">
                <path d="M24.7096959,15.7606113 L23.5636959,19.241824 L15.2668633,19.241824 L14.3948317,15.7606113 L24.7096959,15.7606113 Z M25.7761846,14.2170548 L14.153705,14.2170548 C14.1044425,14.2170548 14.0595014,14.2265615 14.0119674,14.2395253 L13.6973792,12.9794439 C13.6109538,12.632014 13.3032796,12.3900231 12.9489357,12.3900231 L10.4996416,12.3900231 C10.074429,12.3900231 9.72786335,12.7365887 9.72786335,13.1618014 C9.72786335,13.587014 10.074429,13.9335796 10.4996416,13.9335796 L12.3465511,13.9335796 L14.6031167,22.9416928 C14.6886778,23.2856656 14.9972163,23.5259281 15.3515602,23.5259281 L16.1475376,23.5259281 C15.8701122,23.7791543 15.7154109,24.1188059 15.7154109,24.4869778 C15.7154109,25.2025796 16.2953249,25.7842222 17.0074697,25.7842222 C17.7204787,25.7842222 18.3003928,25.2008511 18.3003928,24.4843851 C18.3003928,24.1179416 18.1448271,23.7791543 17.8674018,23.5259281 L21.4004697,23.5259281 C21.1239086,23.7791543 20.968343,24.1188059 20.968343,24.4869778 C20.968343,25.2025796 21.548257,25.7842222 22.2604018,25.7842222 C22.9734109,25.7842222 23.5533249,25.2008511 23.5533249,24.4843851 C23.5533249,24.1179416 23.3977593,23.7791543 23.1203339,23.5259281 L23.7469176,23.5259281 C24.1721303,23.5259281 24.5178317,23.1793624 24.5178317,22.7541498 C24.5178317,22.3289371 24.1721303,21.9823715 23.7469176,21.9823715 L15.9539448,21.9823715 L15.6531846,20.7853805 L24.1220036,20.7853805 C24.4573339,20.7853805 24.7520443,20.5762312 24.8548905,20.2651 L26.5090715,15.2403308 C26.5868543,15.0061181 26.5462344,14.7468421 26.4019041,14.5471995 C26.2523882,14.340643 26.0181756,14.2170548 25.7761846,14.2170548 L25.7761846,14.2170548 Z" id="Fill-1" fill="#DF1995"></path>
                <g id="Group-5">
                    <mask id="mask-2" fill="white">
                        <use xlink:href="#path-1"></use>
                    </mask>
                    <g id="Clip-4"></g>
                    <path d="M36.656962,19.0999136 C36.656962,21.4705606 36.1928579,23.7694747 35.2776136,25.9335652 C34.3934824,28.0241941 33.1282154,29.9022167 31.5146543,31.5149136 C29.9019575,33.1276104 28.0239348,34.3937416 25.9333059,35.2770086 C23.7700796,36.1922529 21.4711656,36.656357 19.1005186,36.656357 C16.7298715,36.656357 14.4309575,36.1922529 12.266867,35.2770086 C10.176238,34.3937416 8.29907964,33.1276104 6.68551855,31.5149136 C5.07282172,29.9013525 3.8066905,28.0241941 2.92255928,25.9335652 C2.00731493,23.7694747 1.54407511,21.4705606 1.54407511,19.0999136 C1.54407511,16.7292665 2.00731493,14.4303525 2.92255928,12.266262 C3.80755475,10.175633 5.07368597,8.29761041 6.68551855,6.68577783 C8.29821538,5.073081 10.176238,3.80694977 12.266867,2.92281855 C14.4309575,2.00757421 16.7298715,1.54347014 19.1005186,1.54347014 C21.4703014,1.54347014 23.7700796,2.00757421 25.9333059,2.92281855 C28.0239348,3.80694977 29.9019575,5.073081 31.5146543,6.68577783 C33.1273511,8.29761041 34.3926181,10.175633 35.2776136,12.266262 C36.1928579,14.4303525 36.656962,16.7292665 36.656962,19.0999136 M36.6984462,11.6647416 C35.7365321,9.3900267 34.3597765,7.34779593 32.6062063,5.59422579 C30.8517719,3.84065566 28.8086769,2.46303575 26.5356905,1.50112172 C24.1797357,0.504637557 21.6777222,-8.64253394e-05 19.1005186,-8.64253394e-05 C16.5224507,-8.64253394e-05 14.0213014,0.504637557 11.6653466,1.50112172 C9.39149593,2.46303575 7.3484009,3.84065566 5.59483077,5.59422579 C3.84126063,7.34779593 2.46364072,9.3900267 1.5017267,11.6647416 C0.505242534,14.0206964 -0.000345701357,16.5218457 -0.000345701357,19.0999136 C-0.000345701357,21.6779814 0.505242534,24.1791308 1.5017267,26.5350855 C2.46364072,28.8089362 3.84039638,30.8520312 5.59483077,32.6056014 C7.3484009,34.3600357 9.39149593,35.7367914 11.6653466,36.6987054 C14.0204371,37.6951896 16.5215864,38.1999136 19.1005186,38.1999136 C21.6785864,38.1999136 24.1806,37.6951896 26.5356905,36.6987054 C28.8086769,35.7367914 30.8517719,34.3600357 32.6062063,32.6056014 C34.3597765,30.8520312 35.7373964,28.8089362 36.6984462,26.5350855 C37.6957946,24.1791308 38.2005186,21.6771172 38.2005186,19.0999136 C38.2005186,16.52271 37.6957946,14.0215606 36.6984462,11.6647416" id="Fill-3" fill="#009A44" mask="url(#mask-2)"></path>
                </g>
                <path d="M30.2150765,19.0956787 C30.2150765,19.5226199 30.5616421,19.8700498 30.9885833,19.8700498 L32.5399181,19.8700498 C32.4483072,21.395457 32.1008774,22.8802443 31.5071353,24.2837919 C30.8286964,25.8869819 29.8581398,27.3268281 28.6213932,28.5644389 C27.3837824,29.8011855 25.9439362,30.7717421 24.3407462,31.4493167 C22.9233706,32.0499729 21.4247552,32.398267 19.8846557,32.4855566 L19.8846557,30.9739774 C19.8846557,30.5470362 19.5372258,30.2004706 19.1102846,30.2004706 C18.6842077,30.2004706 18.3367778,30.5470362 18.3367778,30.9739774 L18.3367778,32.4864208 C16.7889,32.4008597 15.2833706,32.0517014 13.859081,31.4493167 C12.2567552,30.7717421 10.816909,29.8011855 9.57929819,28.5644389 C8.34168733,27.3268281 7.37113077,25.8869819 6.69269186,24.2837919 C6.09981403,22.8793801 5.75151991,21.395457 5.6607733,19.8700498 L7.23198597,19.8700498 C7.65892715,19.8700498 8.00635701,19.5226199 8.00635701,19.0956787 C8.00635701,18.6687376 7.65892715,18.3221719 7.23198597,18.3221719 L5.65472353,18.3221719 C5.73596335,16.7596018 6.08598597,15.2393801 6.69269186,13.8021267 C7.37113077,12.1989367 8.34168733,10.7590905 9.57929819,9.52147964 C10.816909,8.28473303 12.2567552,7.31417647 13.859081,6.63573756 C15.2833706,6.03421719 16.7889,5.68505882 18.3367778,5.59949774 L18.3367778,7.21738009 C18.3367778,7.64432127 18.6842077,7.99175113 19.1102846,7.99175113 C19.5372258,7.99175113 19.8846557,7.64432127 19.8846557,7.21738009 L19.8846557,5.60036199 C21.423891,5.68765158 22.9225063,6.0359457 24.3407462,6.63573756 C25.9439362,7.31417647 27.3837824,8.28473303 28.6213932,9.52147964 C29.8581398,10.7590905 30.8286964,12.1989367 31.5071353,13.8021267 C32.1147054,15.2385158 32.4647281,16.7587376 32.5459679,18.3221719 L30.9885833,18.3221719 C30.5616421,18.3221719 30.2150765,18.6687376 30.2150765,19.0956787 M29.712081,8.43079186 C28.3344611,7.05230769 26.7295425,5.97026244 24.9422665,5.21404072 C23.0919,4.4318914 21.1257235,4.0351991 19.1007778,4.0351991 C17.0741036,4.0351991 15.1087914,4.4318914 13.2584249,5.21404072 C11.4711489,5.97026244 9.86623032,7.05230769 8.48774615,8.43079186 C7.11012624,9.80841176 6.028081,11.4133303 5.27185928,13.2006063 C4.4888457,15.0509729 4.09215339,17.0171493 4.09215339,19.0429593 C4.09215339,21.0687692 4.4888457,23.0349457 5.27185928,24.8853122 C6.028081,26.6725882 7.11012624,28.2775068 8.48774615,29.6551267 C9.86623032,31.0336109 11.4711489,32.1147919 13.2584249,32.8710136 C15.1087914,33.6540271 17.0741036,34.0507195 19.1007778,34.0507195 C21.1257235,34.0507195 23.0919,33.6540271 24.9422665,32.8710136 C26.7295425,32.1147919 28.3344611,31.0336109 29.712081,29.6551267 C31.0905652,28.2775068 32.1726104,26.6725882 32.9288321,24.8853122 C33.7109814,23.0349457 34.108538,21.0687692 34.108538,19.0429593 C34.108538,17.0171493 33.7109814,15.0509729 32.9288321,13.2006063 C32.1726104,11.4133303 31.0905652,9.80841176 29.712081,8.43079186" id="Fill-6" fill="#009A44"></path>
            </g>
        </g>
    </g>
</svg>