<?xml version="1.0" encoding="utf-8"?>
<svg width="17px" height="10px" viewBox="0 0 17 10" version="1.1" xmlns:xlink="http://www.w3.org/1999/xlink" xmlns="http://www.w3.org/2000/svg">
  <path d="M0.225001 9.3C0.425 9.5 0.625 9.6 0.825 9.6C0.825 9.6 0.825 9.6 0.825 9.6C1.025 9.6 1.325 9.5 1.425 9.3L8.325 2.2L15.225 9.3C15.525 9.6 16.125 9.6 16.425 9.3C16.725 8.9 16.725 8.4 16.425 8L8.925 0.3C8.825 0.0999999 8.525 -4.76837e-07 8.325 0C8.325 0 8.325 0 8.325 0C8.125 0 7.825 0.1 7.725 0.3L0.225001 8C-0.0750003 8.4 -0.0750003 8.9 0.225001 9.3L0.225001 9.3Z" id="Path" fill="#979797" fill-rule="evenodd" stroke="none" />
</svg>