<?xml version="1.0" encoding="UTF-8"?>
<svg width="43px" height="30px" viewBox="0 0 43 30" version="1.1" xmlns="http://www.w3.org/2000/svg" xmlns:xlink="http://www.w3.org/1999/xlink">
    <title>Group 28</title>
    <g id="Plantilla-1---Menus-desplegados" stroke="none" stroke-width="1" fill="none" fill-rule="evenodd">
        <g id="Menu-Soluciones" transform="translate(-834.000000, -126.000000)">
            <g id="Group-28" transform="translate(834.000000, 126.000000)">
                <rect id="Rectangle" fill="#FFFFFF" opacity="0" x="0" y="0" width="43" height="30"></rect>
                <g id="Group-8" transform="translate(0.000000, 6.893769)">
                    <path d="M14.2376106,11.6381261 L9.14128659,11.6381261 L8.58764087,9.4279342 L14.965222,9.4279342 L14.2376106,11.6381261 Z M15.8737577,8.77688002 C15.795908,8.66902335 15.6710877,8.5990035 15.5380039,8.5990035 L8.5084865,8.5990035 C8.46543,8.5990035 8.42454807,8.6137903 8.38497088,8.62596767 L8.18186597,7.81095396 C8.13576507,7.62655384 7.96962786,7.49390754 7.77957038,7.49390754 L6.29825278,7.49390754 C6.06948794,7.49390754 5.88377959,7.67961237 5.88377959,7.90837288 C5.88377959,8.1371334 6.06948794,8.32283823 6.29825278,8.32283823 L7.45642917,8.32283823 L8.83075789,13.8109161 C8.87685879,13.9953163 9.04299599,14.1244833 9.23305348,14.1244833 L9.86846305,14.1244833 C9.65231072,14.2627834 9.50530973,14.4893694 9.50530973,14.7581412 C9.50530973,15.1608641 9.83193026,15.4905228 10.2346608,15.4905228 C10.6373913,15.4905228 10.9640118,15.1595594 10.9640118,14.7564016 C10.9640118,14.4880647 10.8170108,14.2627834 10.6008585,14.1244833 L13.0455109,14.1244833 C12.8293586,14.2627834 12.6823576,14.4893694 12.6823576,14.7581412 C12.6823576,15.1608641 13.0089781,15.4905228 13.4117086,15.4905228 C13.8144391,15.4905228 14.1410597,15.1595594 14.1410597,14.7564016 C14.1410597,14.4880647 13.9940587,14.2627834 13.7779064,14.1244833 L14.3102413,14.1244833 C14.539441,14.1244833 14.7247145,13.9392134 14.7247145,13.710018 C14.7247145,13.4812574 14.539441,13.2959875 14.3102413,13.2959875 L9.55619469,13.2959875 L9.34874064,12.4670568 L14.5372665,12.4670568 C14.7164511,12.4670568 14.8751948,12.3583303 14.9312987,12.1882821 L15.9320362,9.1491595 C15.973353,9.02303678 15.9516073,8.88430179 15.8737577,8.77688002 L15.8737577,8.77688002 Z" id="Fill-1" fill="#DF1995"></path>
                    <g id="Group-5" fill="#009A44">
                        <path d="M21.3329741,15.6535691 C20.7954202,16.9239293 20.026057,18.0651224 19.0457605,19.0454004 C18.065464,20.0256784 16.9242493,20.7950269 15.6538651,21.3325707 C14.3382498,21.8888154 12.9408706,22.1710693 11.5,22.1710693 C10.0595643,22.1710693 8.66175025,21.8888154 7.34656985,21.3325707 C6.0757507,20.7950269 4.93453597,20.0256784 3.95467438,19.0454004 C2.97437788,18.0651224 2.20501475,16.9239293 1.66746086,15.6535691 C1.11077074,14.3384135 0.828946373,12.9406259 0.828946373,11.4997825 C0.828946373,10.0593741 1.11077074,8.66158646 1.66746086,7.34643094 C2.20501475,6.07607072 2.97437788,4.93487756 3.95467438,3.9545996 C4.93453597,2.97432164 6.0757507,2.20497305 7.34656985,1.66742933 C8.66175025,1.11118465 10.0595643,0.828930699 11.5,0.828930699 C12.9408706,0.828930699 14.3382498,1.11118465 15.6538651,1.66742933 C16.9242493,2.20497305 18.065464,2.97432164 19.0457605,3.9545996 C20.026057,4.93487756 20.7954202,6.07607072 21.3329741,7.34643094 C21.8892293,8.66158646 22.1714885,10.0593741 22.1714885,11.4997825 C22.1714885,12.9406259 21.8892293,14.3384135 21.3329741,15.6535691 M22.0962484,7.02373074 C21.5169427,5.65421197 20.6879964,4.42429801 19.6320248,3.36834641 C18.5760532,2.31239482 17.346116,1.48302921 15.9765714,0.904169424 C14.5583163,0.30443415 13.0522086,0 11.5,0 C9.94779139,0 8.44168369,0.30443415 7.02386355,0.904169424 C5.65431889,1.48302921 4.42438167,2.31239482 3.36841011,3.36834641 C2.31243854,4.42429801 1.48305726,5.65421197 0.904186521,7.02373074 C0.304004992,8.44152406 0,9.94760329 0,11.4997825 C0,13.0523967 0.304004992,14.558041 0.904186521,15.9762693 C1.48305726,17.345788 2.31243854,18.575702 3.36841011,19.6316536 C4.42438167,20.6876052 5.65431889,21.5165359 7.02386355,22.0958306 C8.44168369,22.6955659 9.94779139,23 11.5,23 C13.0522086,23 14.5583163,22.6955659 15.9765714,22.0958306 C17.346116,21.5165359 18.5760532,20.6876052 19.6320248,19.6316536 C20.6879964,18.575702 21.5169427,17.345788 22.0962484,15.9762693 C22.695995,14.558041 23,13.0523967 23,11.4997825 C23,9.94760329 22.695995,8.44152406 22.0962484,7.02373074" id="Fill-3"></path>
                    </g>
                    <path d="M17.2957965,17.2608944 C16.5429601,18.0137166 15.6661731,18.6047537 14.6902258,19.0174794 C13.8090897,19.3901938 12.8796782,19.6028628 11.9224321,19.6511374 L11.9224321,18.6817321 C11.9224321,18.4521017 11.7358539,18.265962 11.5062193,18.265962 C11.2770195,18.265962 11.0904413,18.4521017 11.0904413,18.6817321 L11.0904413,19.6515723 C10.1288462,19.6046024 9.19508547,19.3919334 8.31003517,19.0174794 C7.33408781,18.6047537 6.45730088,18.0137166 5.70446449,17.2608944 C4.95162809,16.5080722 4.36057976,15.6313019 3.94784623,14.655373 C3.5781692,13.7820819 3.36680092,12.8618209 3.31591597,11.9132911 L4.3218724,11.9132911 C4.55194199,11.9132911 4.73765033,11.7271514 4.73765033,11.497521 C4.73765033,11.2678907 4.55194199,11.081751 4.3218724,11.081751 L3.31287157,11.081751 C3.35723281,10.110606 3.56990583,9.16816489 3.94784623,8.27530302 C4.36057976,7.29937411 4.95162809,6.42303867 5.70446449,5.67021651 C6.45730088,4.91695944 7.33408781,4.32592228 8.31003517,3.91319656 C9.19508547,3.53874255 10.1288462,3.32607356 11.0904413,3.27953862 L11.0904413,4.31331001 C11.0904413,4.54294034 11.2770195,4.72908008 11.5062193,4.72908008 C11.7358539,4.72908008 11.9224321,4.54294034 11.9224321,4.31331001 L11.9224321,3.27997353 C12.8796782,3.32824809 13.8090897,3.54048218 14.6902258,3.91319656 C15.6661731,4.32592228 16.5429601,4.91695944 17.2957965,5.67021651 C18.0486329,6.42303867 18.6396812,7.29937411 19.0524147,8.27530302 C19.4303551,9.16816489 19.6430281,10.110606 19.6873894,11.081751 L18.6905661,11.081751 C18.4609315,11.081751 18.2747882,11.2678907 18.2747882,11.497521 C18.2747882,11.7271514 18.4609315,11.9132911 18.6905661,11.9132911 L19.684345,11.9132911 C19.63346,12.8618209 19.4220917,13.7820819 19.0524147,14.655373 C18.6396812,15.6313019 18.0486329,16.5080722 17.2957965,17.2608944 M17.8820607,5.08396332 C17.0531144,4.25503262 16.0880399,3.60441335 15.0129321,3.14993666 C13.9004217,2.67936844 12.718325,2.44060509 11.5001305,2.44060509 C10.2819359,2.44060509 9.09983927,2.67936844 7.98689396,3.14993666 C6.91222109,3.60441335 5.94714658,4.25503262 5.11820021,5.08396332 C4.28968875,5.91245911 3.63905718,6.87751536 3.18457189,7.95260282 C2.71399478,9.06552709 2.47522691,10.2471665 2.47522691,11.465338 C2.47522691,12.6835095 2.71399478,13.8655838 3.18457189,14.9785081 C3.63905718,16.0531606 4.28968875,17.0182169 5.11820021,17.8471476 C5.94714658,18.6756434 6.91222109,19.3262626 7.98689396,19.7807393 C9.09983927,20.2517425 10.2819359,20.4900709 11.5001305,20.4900709 C12.718325,20.4900709 13.9004217,20.2517425 15.0129321,19.7807393 C16.0880399,19.3262626 17.0531144,18.6756434 17.8820607,17.8471476 C18.7105722,17.0182169 19.3612038,16.0531606 19.8156891,14.9785081 C20.2862662,13.8655838 20.525034,12.6835095 20.525034,11.465338 C20.525034,10.2471665 20.2862662,9.06552709 19.8156891,7.95260282 C19.3612038,6.87751536 18.7105722,5.91245911 17.8820607,5.08396332" id="Fill-6" fill="#009A44"></path>
                </g>
            </g>
        </g>
    </g>
</svg>