<?xml version="1.0" encoding="UTF-8"?>
<svg width="43px" height="30px" viewBox="0 0 43 30" version="1.1" xmlns="http://www.w3.org/2000/svg" xmlns:xlink="http://www.w3.org/1999/xlink">
    <title>Group 29</title>
    <g id="Plantilla-1---Menus-desplegados" stroke="none" stroke-width="1" fill="none" fill-rule="evenodd">
        <g id="Menu-Soluciones" transform="translate(-1088.000000, -126.000000)">
            <g id="Group-29" transform="translate(1088.000000, 126.000000)">
                <g id="Group-6" transform="translate(0.000000, 8.893769)">
                    <g id="Group-3" fill="#009A44">
                        <path d="M20.1868332,20.1871639 L18.8322719,20.1871639 L18.8322719,3.68059679 C18.8322719,3.45612296 18.6499437,3.27422175 18.4254735,3.27422175 L2.73234361,3.27422175 C2.50787345,3.27422175 2.32597522,3.45612296 2.32597522,3.68059679 L2.32597522,20.1871639 L0.812736767,20.1871639 L0.812736767,0.812750081 L20.1868332,0.812750081 L20.1868332,20.1871639 Z M3.13871199,7.903457 L18.0191051,7.903457 L18.0191051,4.24006127 L3.13871199,4.24006127 L3.13871199,7.903457 Z M20.5932016,0 L0.406368383,0 C0.181898229,0 0,0.181901209 0,0.40637504 L0,20.593539 C0,20.8180128 0.181898229,20.999914 0.406368383,20.999914 L2.73234361,20.999914 C2.95681376,20.999914 3.13871199,20.8180128 3.13871199,20.593539 L3.13871199,8.71620708 L18.0191051,8.71620708 L18.0191051,20.593539 C18.0191051,20.8180128 18.2010034,20.999914 18.4254735,20.999914 L20.5932016,20.999914 C20.8176718,20.999914 21,20.8180128 21,20.593539 L21,0.40637504 C21,0.181901209 20.8176718,0 20.5932016,0 L20.5932016,0 Z" id="Fill-1"></path>
                    </g>
                    <path d="M10.9062394,20.1872499 L15.4674557,20.1872499 L15.4674557,16.0323339 L10.9062394,16.0323339 L10.9062394,20.1872499 Z M5.53228627,20.1872499 L10.0935026,20.1872499 L10.0935026,16.0323339 L5.53228627,16.0323339 L5.53228627,20.1872499 Z M5.53228627,15.2195838 L10.0935026,15.2195838 L10.0935026,11.1098206 L5.53228627,11.1098206 L5.53228627,15.2195838 Z M10.9062394,15.2195838 L15.4674557,15.2195838 L15.4674557,11.1098206 L10.9062394,11.1098206 L10.9062394,15.2195838 Z M16.2806225,10.7060257 C16.2806225,10.4802618 16.0974342,10.2966405 15.871244,10.2966405 L5.12892802,10.2966405 C4.90273779,10.2966405 4.7195495,10.4802618 4.7195495,10.7060257 L4.7195495,20.5906148 C4.7195495,20.8168087 4.90273779,21 5.12892802,21 L15.871244,21 C16.0974342,21 16.2806225,20.8168087 16.2806225,20.5906148 L16.2806225,10.7060257 Z" id="Fill-4" fill="#DF1995"></path>
                </g>
                <g id="Group-27" fill="#FFFFFF" opacity="0">
                    <g id="Group-28">
                        <rect id="Rectangle" x="0" y="0" width="43" height="30"></rect>
                    </g>
                </g>
            </g>
        </g>
    </g>
</svg>