<?xml version="1.0" encoding="UTF-8"?>
<svg width="43px" height="30px" viewBox="0 0 43 30" version="1.1" xmlns="http://www.w3.org/2000/svg" xmlns:xlink="http://www.w3.org/1999/xlink">
    <title>Group 14</title>
    <g id="Plantilla-1---Menus-desplegados" stroke="none" stroke-width="1" fill="none" fill-rule="evenodd">
        <g id="Menu-Soluciones" transform="translate(-146.000000, -126.000000)">
            <g id="Group-13" transform="translate(86.000000, 95.000000)">
                <g id="Group-14" transform="translate(60.000000, 31.000000)">
                    <rect id="Rectangle" fill="#FFFFFF" opacity="0" x="0" y="0" width="43" height="30"></rect>
                    <g id="Group-11" transform="translate(0.000000, 12.893769)">
                        <g id="Group-3" transform="translate(10.500000, 0.000000)" fill="#009A44">
                            <path d="M30.5531449,14.1506171 L27.8758304,14.1506171 C27.6334276,13.0941357 26.6321555,12.3023561 25.4369611,12.3023561 C24.2669965,12.3023561 23.2830389,13.0764579 23.014417,14.08921 L20.2055124,14.08921 L20.2055124,5.18750513 L26.6173145,5.18750513 L30.5531449,11.1947021 L30.5531449,14.1506171 Z M25.4369611,16.1086665 C24.5796466,16.1086665 23.8821201,15.4527269 23.8821201,14.646526 C23.8821201,13.8403251 24.5796466,13.1843855 25.4369611,13.1843855 C26.2497527,13.1843855 26.9185866,13.7742659 26.9858657,14.5227814 C26.9814134,14.5469721 26.9789399,14.5706975 26.9789399,14.5958186 C26.9789399,14.6293134 26.9828975,14.6614126 26.990318,14.6930465 C26.9645936,15.477848 26.2774558,16.1086665 25.4369611,16.1086665 L25.4369611,16.1086665 Z M10.5163251,16.1086665 C9.6590106,16.1086665 8.9614841,15.4527269 8.9614841,14.646526 C8.9614841,13.8403251 9.6590106,13.1843855 10.5163251,13.1843855 C11.3736396,13.1843855 12.0711661,13.8403251 12.0711661,14.646526 C12.0711661,15.4527269 11.3736396,16.1086665 10.5163251,16.1086665 L10.5163251,16.1086665 Z M8.10763251,14.0338505 C7.82021201,13.035985 6.84961131,12.3023561 5.69943463,12.3023561 C4.52946996,12.3023561 3.54551237,13.0764579 3.27689046,14.08921 L0.946855124,14.08921 L0.946855124,0.889937881 L17.1373852,0.889937881 L17.1373852,14.08921 L12.9388693,14.08921 C12.6702473,13.0764579 11.6862898,12.3023561 10.5163251,12.3023561 C9.36565371,12.3023561 8.395053,13.035985 8.10763251,14.0338505 L8.10763251,14.0338505 Z M5.69943463,16.1086665 C4.84162544,16.1086665 4.14459364,15.4527269 4.14459364,14.646526 C4.14459364,13.8403251 4.84162544,13.1843855 5.69943463,13.1843855 C6.55674912,13.1843855 7.25378092,13.8403251 7.25378092,14.646526 C7.25378092,15.4527269 6.55674912,16.1086665 5.69943463,16.1086665 L5.69943463,16.1086665 Z M31.429258,10.8350984 L27.2846643,4.50877049 C27.1985866,4.37758257 27.0457244,4.29710204 26.8814841,4.29710204 L19.7320848,4.29710204 C19.4708834,4.29710204 19.2591519,4.49667515 19.2591519,4.74230359 L19.2591519,14.08921 L18.0837456,14.08921 L18.0837456,0.442875517 C18.0837456,0.198642695 17.860636,0 17.6009187,0 L0.463533569,0 C0.203816254,0 0,0.198642695 0,0.442875517 L0,14.526503 C0,14.7707358 0.203816254,14.9796131 0.463533569,14.9796131 L3.22791519,14.9796131 C3.39561837,16.1151794 4.43943463,16.9986044 5.69943463,16.9986044 C6.84961131,16.9986044 7.82021201,16.2598582 8.10763251,15.2619927 C8.395053,16.2598582 9.36565371,17 10.5163251,17 C11.7758304,17 12.8201413,16.1151794 12.9878445,14.9796131 L22.9654417,14.9796131 C23.1331449,16.1151794 24.1774558,16.9986044 25.4369611,16.9986044 C26.6697527,16.9986044 27.6962544,16.1477438 27.8966078,15.0410202 L31.0265724,15.0410202 C31.2877739,15.0410202 31.5,14.8414471 31.5,14.5958186 L31.5,11.0686315 C31.5,10.9858249 31.475265,10.9048792 31.429258,10.8350984 L31.429258,10.8350984 Z" id="Fill-1"></path>
                        </g>
                        <path d="M8.30158241,3.30555556 L0.448417586,3.30555556 C0.200546214,3.30555556 0,3.4956287 0,3.73055556 C0,3.96503831 0.200546214,4.15555556 0.448417586,4.15555556 L8.30158241,4.15555556 C8.54898522,4.15555556 8.75,3.96503831 8.75,3.73055556 C8.75,3.4956287 8.54898522,3.30555556 8.30158241,3.30555556" id="Fill-4" fill="#DF1995"></path>
                        <path d="M8.29879774,6.70555556 L2.20120226,6.70555556 C1.95226308,6.70555556 1.75,6.8956287 1.75,7.13055556 C1.75,7.36503831 1.95226308,7.55555556 2.20120226,7.55555556 L8.29879774,7.55555556 C8.54773692,7.55555556 8.75,7.36503831 8.75,7.13055556 C8.75,6.8956287 8.54773692,6.70555556 8.29879774,6.70555556" id="Fill-7" fill="#DF1995"></path>
                        <path d="M9.12735242,10.2 L4.87264758,10.2 C4.5980834,10.2 4.375,10.3905172 4.375,10.625 C4.375,10.8594828 4.5980834,11.05 4.87264758,11.05 L9.12735242,11.05 C9.4019166,11.05 9.625,10.8594828 9.625,10.625 C9.625,10.3905172 9.4019166,10.2 9.12735242,10.2" id="Fill-9" fill="#DF1995"></path>
                    </g>
                </g>
            </g>
        </g>
    </g>
</svg>