<?xml version="1.0" encoding="UTF-8"?>
<svg width="64px" height="64px" viewBox="0 0 64 64" version="1.1" xmlns="http://www.w3.org/2000/svg" xmlns:xlink="http://www.w3.org/1999/xlink">
    <title>Ico soluciones para empresas</title>
    <defs>
        <polygon id="path-1" points="0 0 33.999543 0 33.999543 34 0 34"></polygon>
        <polygon id="path-3" points="0 34 34 34 34 0 0 0"></polygon>
    </defs>
    <g id="Page-1" stroke="none" stroke-width="1" fill="none" fill-rule="evenodd">
        <g id="Ico-soluciones-para-empresas">
            <rect id="Rectangle" fill="#FFFFFF" opacity="0" x="0" y="0" width="64" height="64"></rect>
            <g transform="translate(0.000000, 22.000000)">
                <g id="Group-3" transform="translate(0.000457, 0.000000)">
                    <mask id="mask-2" fill="white">
                        <use xlink:href="#path-1"></use>
                    </mask>
                    <g id="Clip-2"></g>
                    <path d="M29.7627957,5.27219355 L4.49129032,5.27219355 C4.07908602,5.27219355 3.74456989,5.60670968 3.74456989,6.018 L3.74456989,32.5078387 L1.4916129,32.5078387 L1.4916129,1.49197849 L32.5074731,1.49197849 L32.5074731,32.5078387 L30.5086022,32.5078387 L30.5086022,6.018 C30.5086022,5.60670968 30.174086,5.27219355 29.7627957,5.27219355 L29.7627957,5.27219355 Z M5.23709677,8.98111828 L29.0169892,8.98111828 L29.0169892,6.76472043 L5.23709677,6.76472043 L5.23709677,8.98111828 Z M5.23709677,12.7266022 L29.0169892,12.7266022 L29.0169892,10.4736452 L5.23709677,10.4736452 L5.23709677,12.7266022 Z M33.2532796,-0.000548387097 L0.745806452,-0.000548387097 C0.334516129,-0.000548387097 0,0.33488172 0,0.745258065 L0,33.2536452 C0,33.6649355 0.334516129,34.0003656 0.745806452,34.0003656 L4.49129032,34.0003656 C4.90258065,34.0003656 5.23709677,33.6649355 5.23709677,33.2536452 L5.23709677,14.219129 L29.0169892,14.219129 L29.0169892,33.2536452 C29.0169892,33.6649355 29.3515054,34.0003656 29.7627957,34.0003656 L33.2532796,34.0003656 C33.6654839,34.0003656 34,33.6649355 34,33.2536452 L34,0.745258065 C34,0.33488172 33.6654839,-0.000548387097 33.2532796,-0.000548387097 L33.2532796,-0.000548387097 Z" id="Fill-1" fill="#009A44" mask="url(#mask-2)"></path>
                </g>
                <mask id="mask-4" fill="white">
                    <use xlink:href="#path-3"></use>
                </mask>
                <g id="Clip-5"></g>
                <path d="M9.09134409,24.5083333 L16.2541935,24.5083333 L16.2541935,18.0730108 L9.09134409,18.0730108 L9.09134409,24.5083333 Z M9.09134409,32.5083871 L16.2541935,32.5083871 L16.2541935,25.9999462 L9.09134409,25.9999462 L9.09134409,32.5083871 Z M17.7458065,24.5083333 L24.9086559,24.5083333 L24.9086559,18.0730108 L17.7458065,18.0730108 L17.7458065,24.5083333 Z M17.7458065,32.5083871 L24.9086559,32.5083871 L24.9086559,25.9999462 L17.7458065,25.9999462 L17.7458065,32.5083871 Z M25.6489785,16.5813978 L8.35102151,16.5813978 C7.93698925,16.5813978 7.59973118,16.9186559 7.59973118,17.3317742 L7.59973118,33.2487097 C7.59973118,33.6627419 7.93698925,34 8.35102151,34 L25.6489785,34 C26.0639247,34 26.4002688,33.6627419 26.4002688,33.2487097 L26.4002688,17.3317742 C26.4002688,16.9186559 26.0639247,16.5813978 25.6489785,16.5813978 L25.6489785,16.5813978 Z" id="Fill-4" fill="#DF1995" mask="url(#mask-4)"></path>
            </g>
        </g>
    </g>
</svg>