<?xml version="1.0" encoding="UTF-8"?>
<svg width="64px" height="64px" viewBox="0 0 64 64" version="1.1" xmlns="http://www.w3.org/2000/svg" xmlns:xlink="http://www.w3.org/1999/xlink">
    <title>Ico soluciones digitales</title>
    <defs>
        <polygon id="path-1" points="0 0 42 0 42 33 0 33"></polygon>
    </defs>
    <g id="Page-1" stroke="none" stroke-width="1" fill="none" fill-rule="evenodd">
        <g id="Ico-soluciones-digitales">
            <rect id="Rectangle" fill="#FFFFFF" opacity="0" x="0" y="0" width="64" height="64"></rect>
            <g transform="translate(1.000000, 31.000000)">
                <g id="Group-3">
                    <mask id="mask-2" fill="white">
                        <use xlink:href="#path-1"></use>
                    </mask>
                    <g id="Clip-2"></g>
                    <path d="M12.2671593,13.0984138 L1.5590177,22.0644977 L1.5590177,2.64283802 L12.2671593,13.0984138 Z M13.3952124,14.2016716 C14.3392832,15.098186 15.5704779,15.5915509 16.8695044,15.5915509 C18.163885,15.5915509 19.3913628,15.1010052 20.3437965,14.1997921 L25.3010973,18.3496953 C24.9238407,18.890987 24.6014071,19.4764466 24.3449469,20.0910383 C23.962115,21.0054078 23.728885,21.9686439 23.6517611,22.9572531 L2.94167257,22.9572531 L13.3952124,14.2016716 Z M19.3142389,13.013837 C18.6535752,13.6585004 17.7847699,14.0137231 16.8695044,14.0137231 C15.9542389,14.0137231 15.0863628,13.6575607 14.4247699,13.0128973 L2.70658407,1.56871227 L31.0314956,1.56871227 L19.3142389,13.013837 Z M32.1892832,14.4347278 C31.1578673,14.5042687 30.1924248,14.7363851 29.2381327,15.1442334 C28.1398142,15.6131649 27.1557876,16.2832014 26.3139292,17.1346082 L26.3046372,17.1449453 L21.4764956,13.0984138 L32.1892832,2.64283802 L32.1892832,14.4347278 Z M26.943,18.7716397 C26.9560088,18.7584833 26.9671593,18.7462667 26.9792389,18.7321705 L27.0006106,18.7030385 C27.1372035,18.5423425 27.2765841,18.3891645 27.4150354,18.2491428 C28.8571593,16.7916021 30.773177,15.989062 32.8109204,15.989062 C34.8486637,15.989062 36.7656106,16.7916021 38.2068053,18.2491428 C39.648,19.7076233 40.4415398,21.6453725 40.4415398,23.7071677 C40.4415398,25.7680231 39.648,27.7057723 38.2068053,29.163313 C36.7656106,30.6208537 34.8486637,31.4233939 32.8109204,31.4233939 C30.773177,31.4233939 28.8571593,30.6208537 27.4150354,29.163313 C25.9738407,27.7057723 25.1803009,25.7680231 25.1803009,23.7071677 C25.1803009,21.8737299 25.7917168,20.1662177 26.943,18.7716397 L26.943,18.7716397 Z M41.277823,20.0891588 C40.8150796,18.9830818 40.1525575,17.9888341 39.3088407,17.1346082 C38.4641947,16.2813219 37.4810973,15.6112855 36.388354,15.1442334 C35.5446372,14.7833723 34.6544602,14.5531353 33.7401239,14.4610406 L33.7401239,0.786846452 L33.7391947,0.75677469 L33.7103894,0.574464632 L33.6193274,0.59231974 L33.7029558,0.549091582 L33.6425575,0.408130197 L33.5514956,0.434442989 L33.6239735,0.373359722 L33.5338407,0.406250712 L33.6026018,0.342348217 L33.5273363,0.247434218 L33.1900354,0.0341126552 L32.9883982,-0.000657819797 L32.9846814,0.0942561795 L32.9605221,-0.000657819797 L0.771982301,-0.000657819797 L0.531318584,0.0397511106 L0.540610619,0.136544595 L0.496938053,0.051967764 L0.271141593,0.189170179 L0.325964602,0.266229069 L0.249769912,0.20796503 L0.18100885,0.282204693 L0.255345133,0.338589247 L0.165212389,0.300999544 L0.106672566,0.389335346 L0.187513274,0.434442989 L0.0908761062,0.41658788 L0.0416283186,0.529356988 L0.129902655,0.55942875 L0.0314070796,0.565067206 L-0.000308710598,0.754895204 C-0.00111504425,0.772750313 0.00353097345,0.792484907 0.00353097345,0.777449026 L0.00631858407,0.808460531 L0.00724778761,0.812219501 L0.00724778761,23.7616727 C0.00631858407,23.7776484 0.00538938053,23.793624 0.00724778761,23.8133586 L0.00631858407,23.822756 L0.0118938053,23.8800803 L0.0843716814,24.0990403 L0.166141593,24.0529929 L0.0983097345,24.1244134 L0.182867257,24.0849442 L0.110389381,24.1450877 L0.316672566,24.3743849 C0.342690265,24.3931797 0.368707965,24.4110349 0.400300885,24.4298297 L0.458840708,24.4589617 C0.468132743,24.4636604 0.477424779,24.4674194 0.496938053,24.4749374 L23.6573363,24.5266232 C23.7400354,25.4898593 23.9714071,26.4305416 24.3449469,27.3232971 C24.8076903,28.4303138 25.4702124,29.4245615 26.3139292,30.2778477 C27.157646,31.131134 28.1407434,31.8011704 29.2334867,32.2691622 C30.3680442,32.7540694 31.5713628,33.0002819 32.8109204,33.0002819 C34.0504779,33.0002819 35.2537965,32.7540694 36.388354,32.2691622 C37.4820265,31.8011704 38.4641947,31.131134 39.3088407,30.2778477 C40.1525575,29.4245615 40.8150796,28.4303138 41.277823,27.3242368 C41.757292,26.1777509 42.0007434,24.9607843 42.0007434,23.7071677 C42.0007434,22.4526113 41.757292,21.2356447 41.277823,20.0891588 L41.277823,20.0891588 Z" id="Fill-1" fill="#009A44" mask="url(#mask-2)"></path>
                </g>
                <path d="M29.668354,20.6585488 L35.7314071,22.7372594 L34.1564071,24.3320025 L35.9971593,26.1926928 L35.1404336,27.0591354 L33.2996814,25.1975054 L31.7237522,26.7913088 L29.668354,20.6585488 Z M30.2964956,27.4406709 C30.4600354,27.9293371 30.8540177,28.2901982 31.3511416,28.407666 C31.8426903,28.5232544 32.3639735,28.3719558 32.7198584,28.0129741 L33.2996814,27.4265748 L34.1034425,28.2394521 C34.3803451,28.5194954 34.7483097,28.6736132 35.1404336,28.6736132 C35.5325575,28.6736132 35.9005221,28.5194954 36.1764956,28.2394521 L37.1642389,27.2405058 C37.4411416,26.9614022 37.593531,26.5892642 37.593531,26.1926928 C37.593531,25.7970612 37.4411416,25.4249231 37.1642389,25.1448798 L36.3595487,24.3320025 L36.9393717,23.7456031 C37.2999027,23.3800433 37.4467168,22.8631849 37.3305664,22.3604226 C37.2144159,21.8576603 36.8566726,21.4592095 36.3744159,21.2938148 L29.9907876,19.1051543 C29.4648584,18.9247238 28.873885,19.0666249 28.4836195,19.460377 C28.0868496,19.8625869 27.9511858,20.446167 28.1323805,20.9846395 L30.2964956,27.4406709 Z" id="Fill-4" fill="#DF1995"></path>
            </g>
        </g>
    </g>
</svg>