<?xml version="1.0" encoding="utf-8"?>
<svg width="27px" height="17px" viewBox="0 0 27 17" version="1.1" xmlns:xlink="http://www.w3.org/1999/xlink" xmlns="http://www.w3.org/2000/svg">
  <g id="menu-(1)">
    <path d="M0.875252 1.61904L22.1541 1.61904C22.6373 1.61904 23.0294 1.25634 23.0294 0.809522C23.0294 0.362636 22.6372 0 22.1541 0L0.875252 0C0.392081 0 1.77376e-14 0.362704 1.77376e-14 0.809522C1.77376e-14 1.25634 0.392154 1.61904 0.875252 1.61904Z" transform="translate(3.970581 0)" id="Path" fill="#FFFFFF" stroke="none" />
    <path d="M26.117 0L0.882973 0C0.395539 0 1.77982e-14 0.362704 1.77982e-14 0.809523C1.77982e-14 1.25634 0.395613 1.61905 0.882973 1.61905L26.117 1.61905C26.6044 1.61905 27 1.25634 27 0.809523C27 0.362704 26.6044 0 26.117 0Z" transform="translate(0 8.095215)" id="Path" fill="#FFFFFF" stroke="none" />
    <path d="M18.7086 0L0.938481 0C0.420405 0 -2.79474e-14 0.362704 -2.79474e-14 0.809522C-2.79474e-14 1.25641 0.420483 1.61904 0.938481 1.61904L18.7086 1.61904C19.2266 1.61904 19.647 1.25634 19.647 0.809522C19.6471 0.362636 19.2266 0 18.7086 0Z" transform="translate(7.3529663 15.380981)" id="Path" fill="#FFFFFF" stroke="none" />
  </g>
</svg>