<?xml version="1.0" encoding="UTF-8"?>
<svg width="14px" height="14px" viewBox="0 0 14 14" version="1.1" xmlns="http://www.w3.org/2000/svg" xmlns:xlink="http://www.w3.org/1999/xlink">
    <!-- Generator: Sketch 55.2 (78181) - https://sketchapp.com -->
    <title>icon/image/search/24 copy 10</title>
    <desc>Created with Sketch.</desc>
    <defs>
        <path d="M15,14.295 L11.225,10.5 C13.0996648,8.2380802 12.8657415,4.90219848 10.6937484,2.92404398 C8.52175532,0.945889472 5.17859243,1.02392055 3.10125649,3.10125649 C1.02392055,5.17859243 0.945889472,8.52175532 2.92404398,10.6937484 C4.90219848,12.8657415 8.2380802,13.0996648 10.5,11.225 L14.295,15 L15,14.295 Z M2.5,7 C2.5,4.51471863 4.51471863,2.5 7,2.5 C9.48528137,2.5 11.5,4.51471863 11.5,7 C11.5,9.48528137 9.48528137,11.5 7,11.5 C4.51471863,11.5 2.5,9.48528137 2.5,7 Z" id="path-1"></path>
    </defs>
    <g id="Page-1" stroke="none" stroke-width="1" fill="none" fill-rule="evenodd">
        <g id="Apple-TV-Copy" transform="translate(-1572.000000, -2078.000000)">
            <g id="icon/image/search/24" transform="translate(1571.000000, 2077.000000)">
                <mask id="mask-2" fill="white">
                    <use xlink:href="#path-1"></use>
                </mask>
                <use id="icon-color" fill="#717171" fill-rule="evenodd" xlink:href="#path-1"></use>
            </g>
        </g>
    </g>
</svg>